<?xml version="1.0" encoding="UTF-8" standalone="no"?>
<!-- Created with Inkscape (http://www.inkscape.org/) -->

<svg
   version="1.1"
   id="svg2"
   width="1000"
   height="666.66669"
   viewBox="0 0 1000 666.66669"
   sodipodi:docname="4151016.eps"
   xmlns:inkscape="http://www.inkscape.org/namespaces/inkscape"
   xmlns:sodipodi="http://sodipodi.sourceforge.net/DTD/sodipodi-0.dtd"
   xmlns="http://www.w3.org/2000/svg"
   xmlns:svg="http://www.w3.org/2000/svg">
  <defs
     id="defs6" />
  <sodipodi:namedview
     id="namedview4"
     pagecolor="#ffffff"
     bordercolor="#000000"
     borderopacity="0.25"
     inkscape:showpageshadow="2"
     inkscape:pageopacity="0.0"
     inkscape:pagecheckerboard="0"
     inkscape:deskcolor="#d1d1d1" />
  <g
     id="g8"
     inkscape:groupmode="layer"
     inkscape:label="ink_ext_XXXXXX"
     transform="matrix(1.3333333,0,0,-1.3333333,0,666.66667)">
    <g
       id="g10"
       transform="scale(0.1)">
      <path
         d="M 0,0 H 7500 V 5000 H 0 Z"
         style="fill:#ffffff;fill-opacity:1;fill-rule:nonzero;stroke:none"
         id="path12" />
      <path
         d="m 1506.65,3680 c 0,0 501.9,439.16 1118.81,230.04 616.92,-209.13 1097.9,-1160.63 1693.89,-1192.01 220.26,-11.59 434.81,25.38 641.54,62.34 352.65,63.05 682.53,126.1 979.17,-51.88 470.52,-282.31 554.17,-1505.68 -345.05,-1631.16 -494.58,-69.01 -868.96,35.95 -1170.12,140.9 -246.4,85.87 -443.79,171.74 -617.88,162.33 C 3420.13,1379.64 2479.07,909.121 1736.69,1118.25 994.297,1327.37 325.105,2770.31 1506.65,3680"
         style="fill:#edf7fd;fill-opacity:1;fill-rule:nonzero;stroke:none"
         id="path14" />
      <path
         d="M 4860,3608.22 H 3103.58 c -118.52,103.4 -240.09,193.88 -367,255.79 l 144.93,556.85 c 3.95,15.18 17.66,25.77 33.34,25.77 h 2145.42 c 22.56,0 39.02,-21.31 33.35,-43.13 L 4893.34,3634 c -3.96,-15.18 -17.66,-25.78 -33.34,-25.78 m -447.74,456.74 c 0.09,-15.36 0.84,-29.37 2.71,-39.39 1.97,-5.9 7.73,-12.36 15.21,-18.67 -8.17,-21.09 -20.62,-44.91 -38.23,-58.04 -36.35,-27.13 -128.82,-46.86 -162.71,-73.98 -30.48,-24.4 -57.68,-95.66 -62.84,-109.74 h 544.45 c 1.85,14.08 10.19,85.34 -8.13,109.74 -20.36,27.12 -102.99,46.85 -125.82,73.98 -11.66,13.86 -11.66,39.61 -8.87,61.5 8.13,5.18 14.88,10.38 18.9,15.21 6.86,10.02 14.59,24.03 22.34,39.39 2.27,-2.21 5.27,-3.96 9.12,-3.96 0.13,0 0.26,0 0.39,0 10.84,0.33 52.14,56.54 41.49,69.57 -1.92,2.35 -4.22,3.32 -6.7,3.32 -5.35,0 -11.53,-4.51 -16.52,-9.24 10.93,25.03 18.61,44.22 18.61,44.22 h -0.41 c 1.04,3.15 1.99,6.33 2.79,9.56 16.39,65.71 -23.6,118.98 -89.31,118.98 -65.72,0 -132.27,-53.27 -148.65,-118.98 -0.81,-3.23 -1.44,-6.41 -1.97,-9.56 h -0.42 c 0,0 -1.87,-19.19 -3.43,-44.22 -2.65,4.73 -6.58,9.24 -11.93,9.24 -2.47,0 -5.25,-0.97 -8.35,-3.32 -17.15,-13.03 -3.88,-69.24 6.81,-69.57 0.13,0 0.25,0 0.38,0 3.85,0 7.73,1.75 11.09,3.96 m -407.86,-283.4 v -5.74 -5.75 0 c 4.02,0 7.52,2.73 8.52,6.59 v 0 l 17.78,68.32 v 0.01 l 0.29,2.22 c -0.01,4.75 -3.82,8.76 -8.81,8.79 h -397.31 c -4.01,0 -7.51,-2.71 -8.52,-6.58 v 0 l -17.78,-68.31 0.01,0.01 -0.01,-0.02 v 0.01 l -0.29,-2.24 c 0,-4.76 3.82,-8.77 8.81,-8.8 h 397.31 v 5.75 3.06 2.68 m -899.69,-0.46 -0.29,-2.23 c 0.01,-4.74 3.82,-8.77 8.81,-8.8 h 397.31 v 5.75 3.06 2.68 -5.74 -5.75 c 4.02,0.01 7.51,2.72 8.52,6.59 l 0.12,0.46 17.66,67.86 0.01,0.02 0.28,2.2 c -0.01,4.75 -3.81,8.77 -8.8,8.8 h -397.32 c -4.02,0 -7.51,-2.71 -8.52,-6.58 l -17.78,-68.32 v 0 m -153.32,173.59 c -9.52,0 -17.23,-7.71 -17.23,-17.23 0,-9.51 7.71,-17.23 17.23,-17.23 h 746.53 c 9.52,0 17.23,7.72 17.23,17.23 0,9.52 -7.71,17.23 -17.23,17.23 h -746.53 m 313.92,130.16 c -9.51,0 -17.22,-7.71 -17.22,-17.22 0,-9.52 7.71,-17.24 17.22,-17.24 h 746.53 c 9.52,0 17.23,7.72 17.23,17.24 0,9.51 -7.71,17.22 -17.23,17.22 h -746.53 m -306.27,0 c -9.51,0 -17.22,-7.71 -17.22,-17.22 0,-9.52 7.71,-17.24 17.22,-17.24 h 223.97 c 9.51,0 17.22,7.72 17.22,17.24 0,9.51 -7.71,17.22 -17.22,17.22 h -223.97 m 30.63,99.54 c -9.51,0 -17.22,-7.71 -17.22,-17.22 0,-9.52 7.71,-17.23 17.22,-17.23 h 223.96 c 9.52,0 17.23,7.71 17.23,17.23 0,9.51 -7.71,17.22 -17.23,17.22 h -223.96 m 884.35,114.85 c -9.51,0 -17.23,-7.71 -17.23,-17.23 0,-9.51 7.72,-17.22 17.23,-17.22 h 266.07 c 9.52,0 17.23,7.71 17.23,17.22 0,9.52 -7.71,17.23 -17.23,17.23 h -266.07 m -865.21,0 c -9.51,0 -17.22,-7.71 -17.22,-17.23 0,-9.51 7.71,-17.22 17.22,-17.22 h 746.53 c 9.52,0 17.23,7.71 17.23,17.22 0,9.52 -7.71,17.23 -17.23,17.23 h -746.53"
         style="fill:#e7f1fa;fill-opacity:1;fill-rule:nonzero;stroke:none"
         id="path16" />
      <path
         d="m 3103.58,3608.22 h -389 c -22.56,0 -39.03,21.31 -33.35,43.14 l 55.35,212.65 c 126.91,-61.91 248.48,-152.39 367,-255.79"
         style="fill:#dbebf9;fill-opacity:1;fill-rule:nonzero;stroke:none"
         id="path18" />
      <path
         d="m 3507.94,3779.55 v 0.01 h 0.01 l -0.01,-0.01 m 494.38,2.01 h -391.76 l 16.38,62.96 h 391.77 l -16.39,-62.96 m -493.85,0 H 3116.7 l 16.38,62.96 h 391.77 l -16.38,-62.96 m -374.86,64.96 h -0.01 0.01 v 0"
         style="fill:#e7f1fa;fill-opacity:1;fill-rule:nonzero;stroke:none"
         id="path20" />
      <path
         d="m 3755.34,4264.79 h -746.53 c -9.51,0 -17.22,7.71 -17.22,17.22 0,9.52 7.71,17.23 17.22,17.23 h 746.53 c 9.52,0 17.23,-7.71 17.23,-17.23 0,-9.51 -7.71,-17.22 -17.23,-17.22"
         style="fill:#dee4f5;fill-opacity:1;fill-rule:nonzero;stroke:none"
         id="path22" />
      <path
         d="m 3697.92,3920.23 h -746.53 c -9.52,0 -17.23,7.72 -17.23,17.23 0,9.52 7.71,17.23 17.23,17.23 h 746.53 c 9.52,0 17.23,-7.71 17.23,-17.23 0,-9.51 -7.71,-17.23 -17.23,-17.23"
         style="fill:#dee4f5;fill-opacity:1;fill-rule:nonzero;stroke:none"
         id="path24" />
      <path
         d="m 4011.84,4050.39 h -746.53 c -9.51,0 -17.22,7.72 -17.22,17.24 0,9.51 7.71,17.22 17.22,17.22 h 746.53 c 9.52,0 17.23,-7.71 17.23,-17.22 0,-9.52 -7.71,-17.24 -17.23,-17.24"
         style="fill:#dee4f5;fill-opacity:1;fill-rule:nonzero;stroke:none"
         id="path26" />
      <path
         d="m 3213.63,4149.94 h -223.96 c -9.51,0 -17.22,7.71 -17.22,17.23 0,9.51 7.71,17.22 17.22,17.22 h 223.96 c 9.52,0 17.23,-7.71 17.23,-17.22 0,-9.52 -7.71,-17.23 -17.23,-17.23"
         style="fill:#dee4f5;fill-opacity:1;fill-rule:nonzero;stroke:none"
         id="path28" />
      <path
         d="m 3183.01,4050.39 h -223.97 c -9.51,0 -17.22,7.72 -17.22,17.24 0,9.51 7.71,17.22 17.22,17.22 h 223.97 c 9.51,0 17.22,-7.71 17.22,-17.22 0,-9.52 -7.71,-17.24 -17.22,-17.24"
         style="fill:#dee4f5;fill-opacity:1;fill-rule:nonzero;stroke:none"
         id="path30" />
      <path
         d="m 4140.09,4264.79 h -266.07 c -9.51,0 -17.23,7.71 -17.23,17.22 0,9.52 7.72,17.23 17.23,17.23 h 266.07 c 9.52,0 17.23,-7.71 17.23,-17.23 0,-9.51 -7.71,-17.22 -17.23,-17.22"
         style="fill:#dee4f5;fill-opacity:1;fill-rule:nonzero;stroke:none"
         id="path32" />
      <path
         d="m 4004.4,3770.07 v 0 5.75 5.74 -2.68 -3.06 -5.75 h -397.31 c -4.99,0.03 -8.81,4.04 -8.81,8.8 l 0.29,2.24 17.78,68.31 v 0 c 1.01,3.87 4.51,6.58 8.52,6.58 h 397.31 c 4.99,-0.03 8.8,-4.04 8.81,-8.79 l -0.29,-2.22 v -0.01 l -17.78,-68.32 v 0 c -1,-3.86 -4.5,-6.59 -8.52,-6.59 m -393.84,11.49 h 391.76 l 16.39,62.96 h -391.77 l -16.38,-62.96 m -11.99,-0.46 0.01,0.02 -0.01,-0.01 v -0.01"
         style="fill:#ccddf3;fill-opacity:1;fill-rule:nonzero;stroke:none"
         id="path34" />
      <path
         d="m 3510.54,3770.07 h -397.31 c -4.99,0.03 -8.8,4.06 -8.81,8.8 l 0.29,2.23 v 0 l 17.78,68.32 c 1.01,3.87 4.5,6.58 8.52,6.58 h 397.32 c 4.99,-0.03 8.79,-4.05 8.8,-8.8 l -0.28,-2.2 -0.01,-0.02 -17.66,-67.86 -0.12,-0.46 c -1.01,-3.87 -4.5,-6.58 -8.52,-6.59 v 5.75 5.74 -2.68 -3.06 -5.75 m -2.6,9.49 v -0.01 l 0.01,0.01 h -0.01 v 0 m -391.24,2 h 391.77 l 16.38,62.96 h -391.77 l -16.38,-62.96 m 16.9,64.96 h 0.01 v 0 h -0.01"
         style="fill:#ccddf3;fill-opacity:1;fill-rule:nonzero;stroke:none"
         id="path36" />
      <path
         d="M 4710.85,3765.14 H 4166.4 c 5.16,14.08 32.36,85.34 62.84,109.74 33.89,27.12 126.36,46.85 162.71,73.98 17.61,13.13 30.06,36.95 38.23,58.04 -7.48,6.31 -13.24,12.77 -15.21,18.67 -1.87,10.02 -2.62,24.03 -2.71,39.39 -3.36,-2.21 -7.24,-3.96 -11.09,-3.96 -0.13,0 -0.25,0 -0.38,0 -10.69,0.33 -23.96,56.54 -6.81,69.57 3.1,2.35 5.88,3.32 8.35,3.32 5.35,0 9.28,-4.51 11.93,-9.24 1.56,25.03 3.43,44.22 3.43,44.22 h 0.42 c 0.53,3.15 1.16,6.33 1.97,9.56 16.38,65.71 82.93,118.98 148.65,118.98 65.71,0 105.7,-53.27 89.31,-118.98 -0.8,-3.23 -1.75,-6.41 -2.79,-9.56 h 0.41 c 0,0 -7.68,-19.19 -18.61,-44.22 4.99,4.73 11.17,9.24 16.52,9.24 2.48,0 4.78,-0.97 6.7,-3.32 10.65,-13.03 -30.65,-69.24 -41.49,-69.57 -0.13,0 -0.26,0 -0.39,0 -3.85,0 -6.85,1.75 -9.12,3.96 -7.75,-15.36 -15.48,-29.37 -22.34,-39.39 -4.02,-4.83 -10.77,-10.03 -18.9,-15.21 -2.79,-21.89 -2.79,-47.64 8.87,-61.5 22.83,-27.13 105.46,-46.86 125.82,-73.98 18.32,-24.4 9.98,-95.66 8.13,-109.74"
         style="fill:#d1e2f5;fill-opacity:1;fill-rule:nonzero;stroke:none"
         id="path38" />
      <path
         d="m 4486.72,2995.69 v 5.74 H 2341.31 c -8.17,0.01 -15.28,3.3 -20.46,8.56 -5.16,5.26 -8.27,12.43 -8.27,20.08 0,2.39 0.3,4.83 0.94,7.3 l 200.29,769.5 c 3.29,12.65 14.71,21.48 27.78,21.48 h 2145.42 c 8.17,-0.01 15.28,-3.31 20.45,-8.56 5.16,-5.26 8.28,-12.43 8.27,-20.08 0,-2.39 -0.3,-4.83 -0.94,-7.31 l -200.27,-769.49 c -3.3,-12.65 -14.73,-21.48 -27.8,-21.48 v -5.74 -5.75 c 18.3,0 34.3,12.36 38.91,30.07 l 200.28,769.5 c 0.88,3.42 1.31,6.84 1.31,10.2 -0.04,21.55 -17.45,40.1 -40.21,40.13 H 2541.59 c -18.3,0 -34.29,-12.37 -38.9,-30.08 l -200.28,-769.5 c -0.89,-3.41 -1.32,-6.84 -1.32,-10.19 0.04,-21.55 17.45,-40.1 40.22,-40.13 h 2145.41 v 5.75"
         style="fill:#7590d1;fill-opacity:1;fill-rule:nonzero;stroke:none"
         id="path40" />
      <path
         d="M 4446.53,3053.11 H 2301.11 c -22.55,0 -39.02,21.31 -33.34,43.13 l 200.28,769.5 c 3.95,15.18 17.65,25.78 33.34,25.78 h 2145.42 c 22.55,0 39.03,-21.31 33.34,-43.13 l -200.28,-769.51 c -3.95,-15.18 -17.66,-25.77 -33.34,-25.77"
         style="fill:#afc3e9;fill-opacity:1;fill-rule:nonzero;stroke:none"
         id="path42" />
      <path
         d="m 2974.36,3047.36 h 1073.86 v 11.4922 H 2974.36 Z"
         style="fill:#7590d1;fill-opacity:1;fill-rule:nonzero;stroke:none"
         id="path44" />
      <path
         d="m 2675.75,3885.78 h 907.32 v 11.4805 h -907.32 z"
         style="fill:#7590d1;fill-opacity:1;fill-rule:nonzero;stroke:none"
         id="path46" />
      <path
         d="m 4273.33,3167.96 h -482.39 c -22.19,0 -35.7,18 -30.17,40.2 l 121.71,488.12 c 5.52,22.19 28.01,40.19 50.21,40.19 h 482.37 c 22.21,0 35.72,-18 30.18,-40.19 l -121.7,-488.12 c -5.54,-22.2 -28.02,-40.2 -50.21,-40.2"
         style="fill:#c0e2f7;fill-opacity:1;fill-rule:nonzero;stroke:none"
         id="path48" />
      <path
         d="m 4036.59,3166.05 42.21,169.3 -69.2,29.31 c 0,0 -128.99,-47.22 -139.97,-58.61 -9.2,-9.55 -55.52,-108.31 -70.26,-140 h 237.22"
         style="fill:#1b3c60;fill-opacity:1;fill-rule:nonzero;stroke:none"
         id="path50" />
      <path
         d="m 4275.43,3166.05 c 1.06,31.69 4,130.45 -0.44,140 -5.31,11.39 -110.75,58.61 -110.75,58.61 l -83.81,-29.31 -42.21,-169.3 h 237.21"
         style="fill:#1b3c60;fill-opacity:1;fill-rule:nonzero;stroke:none"
         id="path52" />
      <path
         d="m 4080.24,3166.05 66.13,146.51 -142.03,-8.14 -13.89,-138.37 h 89.79"
         style="fill:#bfbbd1;fill-opacity:1;fill-rule:nonzero;stroke:none"
         id="path54" />
      <path
         d="m 4035.21,3395.59 -30.92,-19.54 -20.31,-48.84 -5.25,-66.74 43.53,17.91 33.81,-40.7 45.16,37.44 27.68,-26.05 41.87,89.54 -7.37,55.35 -17.51,8.14 -110.69,-6.51"
         style="fill:#e1e2eb;fill-opacity:1;fill-rule:nonzero;stroke:none"
         id="path56" />
      <path
         d="m 4044.72,3523.75 c 0,0 -10.39,23.61 -31.69,7.9 -21.3,-15.7 3.64,-76.35 19.07,-58.1 15.42,18.25 12.62,50.2 12.62,50.2"
         style="fill:#f57868;fill-opacity:1;fill-rule:nonzero;stroke:none"
         id="path58" />
      <path
         d="m 4196.51,3525.01 c 0,0 20.24,25.02 35.52,11 15.27,-14.02 -34.94,-78.13 -43.2,-60.97 -8.25,17.15 7.68,49.97 7.68,49.97"
         style="fill:#f57868;fill-opacity:1;fill-rule:nonzero;stroke:none"
         id="path60" />
      <path
         d="m 4149.06,3348.31 21.79,115.57 -126.12,-10.93 -27.84,-108.54 c 0,0 22.05,-51.39 45.67,-74.17 0,0 73.34,63.35 86.5,78.07"
         style="fill:#f4706d;fill-opacity:1;fill-rule:nonzero;stroke:none"
         id="path62" />
      <path
         d="m 4251.33,3571.67 c -4.69,-14.06 -16.28,-17.58 -17.13,-25.77 -0.86,-8.21 -6.12,-29.29 -14.12,-37.49 -7.98,-8.2 -12.14,-10.54 -12.14,-10.54 0,0 -108.2,-30.46 -163.14,11.71 0,0 -3.59,16.01 0.18,35.14 3.72,18.94 -5.47,22.26 5.2,31.63 10.67,9.37 13.9,17.57 14.15,28.11 0.25,10.55 1.08,23.43 12.04,33.97 10.96,10.55 20.79,7.03 31.46,16.4 0,0 15.78,26.49 36.62,29.5 20.84,3.02 64.77,14.07 90.92,-18.07 26.13,-32.15 14.1,-60.27 21.64,-70.32 7.54,-10.04 -5.68,-24.27 -5.68,-24.27"
         style="fill:#6c2931;fill-opacity:1;fill-rule:nonzero;stroke:none"
         id="path64" />
      <path
         d="m 4043.86,3543.65 c 0,0 -51.04,-140.63 45.11,-151.17 84.96,-1.97 115.13,101.71 127.29,154.89 12.16,53.17 4.64,108.84 -63.36,107.01 -68.01,-1.82 -101.56,-79.23 -109.04,-110.73"
         style="fill:#f79985;fill-opacity:1;fill-rule:nonzero;stroke:none"
         id="path66" />
      <path
         d="m 4070.57,3594.09 c 0,0 6.29,-11.27 0.46,-22.64 -5.83,-11.37 -21.65,-15.74 -24.02,-30.74 -2.37,-15.01 -9.31,-46.2 -13.57,-47.56 -4.24,-1.37 -1.24,30.46 -0.52,41.37 0.72,10.91 8.84,56.01 31.53,84.67 22.68,28.65 36.69,40.75 77.07,47.32 40.37,6.56 70.98,-10.42 82.21,-35.06 11.24,-24.64 -6.74,-87.39 -6.74,-87.39 0,0 2.69,29.83 -7.3,36.83 -9.99,6.99 -18.25,12.17 -16.59,16.27 1.65,4.09 -31.96,-10.75 -65.55,0.05 -33.6,10.81 -44.46,5.89 -50.05,2.44 -5.59,-3.46 -6.93,-5.56 -6.93,-5.56"
         style="fill:#6c2931;fill-opacity:1;fill-rule:nonzero;stroke:none"
         id="path68" />
      <path
         d="m 3973.07,3326.18 0.57,-0.14 -0.56,0.17 -0.01,-0.03 0.57,-0.14 -0.56,0.17 c -0.11,-0.35 -1.01,-2.68 -2.38,-6.06 -4.84,-11.96 -15.96,-38.66 -25.86,-62.36 -9.9,-23.7 -18.57,-44.36 -18.59,-44.4 l -0.88,-2.1 40.37,-20.29 -10.29,-20.61 4.37,-2.18 12.46,24.97 -42.68,21.45 -1.1,-2.19 2.25,-0.94 c 0,0 11.53,27.47 23.16,55.35 5.82,13.94 11.66,27.99 16.1,38.75 2.22,5.38 4.09,9.95 5.44,13.27 0.67,1.67 1.21,3.02 1.6,4.02 0.4,1.05 0.6,1.54 0.75,2.1 l -4.73,1.19"
         style="fill:#1c2a50;fill-opacity:1;fill-rule:nonzero;stroke:none"
         id="path70" />
      <path
         d="m 4172.49,3326.18 c -0.13,-0.58 -0.18,-1.09 -0.3,-2.14 -1.64,-14.87 -9.25,-111.38 -9.26,-111.4 l 2.44,-0.2 -0.91,2.27 -52.19,-20.97 0.01,-24.44 h 4.88 v 21.14 l 50.52,20.3 0.12,1.51 c 0.01,0.06 2.17,27.47 4.44,55.35 1.13,13.93 2.3,27.97 3.22,38.72 0.47,5.38 0.87,9.93 1.19,13.24 0.15,1.65 0.29,2.99 0.39,3.95 l 0.14,1.14 0.05,0.31 v 0.03 l -4.74,1.19"
         style="fill:#1c2a50;fill-opacity:1;fill-rule:nonzero;stroke:none"
         id="path72" />
      <path
         d="m 4273.33,3167.96 v 5.74 h -482.39 c -8.11,0.02 -14.37,2.73 -18.73,7.01 -4.35,4.31 -6.92,10.32 -6.94,17.69 0,2.63 0.34,5.43 1.07,8.36 l 121.71,488.13 c 2.39,9.67 8.66,18.76 16.87,25.32 8.21,6.59 18.24,10.54 27.77,10.52 h 482.37 c 8.12,-0.02 14.38,-2.72 18.75,-7.01 4.34,-4.3 6.91,-10.31 6.93,-17.68 0,-2.64 -0.34,-5.44 -1.07,-8.37 l -121.7,-488.12 c -2.4,-9.68 -8.66,-18.77 -16.88,-25.33 -8.2,-6.58 -18.23,-10.54 -27.76,-10.52 v -5.74 -5.74 c 12.66,0.02 24.97,5.06 34.94,13.03 9.96,7.99 17.7,18.99 20.84,31.52 l 121.7,488.12 c 0.95,3.79 1.41,7.53 1.41,11.15 0.02,10.11 -3.7,19.32 -10.35,25.86 -6.63,6.56 -16.08,10.33 -26.81,10.31 h -482.37 c -12.67,-0.02 -24.97,-5.06 -34.95,-13.03 -9.96,-7.99 -17.7,-18.99 -20.84,-31.52 l -121.7,-488.11 c -0.95,-3.8 -1.41,-7.54 -1.41,-11.15 -0.02,-10.11 3.7,-19.32 10.35,-25.86 6.64,-6.57 16.08,-10.34 26.8,-10.32 h 482.39 v 5.74"
         style="fill:#ffffff;fill-opacity:1;fill-rule:nonzero;stroke:none"
         id="path74" />
      <path
         d="m 2595.35,3690.53 h 746.53 c 9.52,0 17.23,7.72 17.23,17.23 0,9.52 -7.71,17.23 -17.23,17.23 h -746.53 c -9.51,0 -17.22,-7.71 -17.22,-17.23 0,-9.51 7.71,-17.23 17.22,-17.23"
         style="fill:#829dd8;fill-opacity:1;fill-rule:nonzero;stroke:none"
         id="path76" />
      <path
         d="m 2537.93,3345.98 h 746.52 c 9.52,0 17.23,7.71 17.23,17.22 0,9.52 -7.71,17.23 -17.23,17.23 h -746.52 c -9.52,0 -17.23,-7.71 -17.23,-17.23 0,-9.51 7.71,-17.22 17.23,-17.22"
         style="fill:#829dd8;fill-opacity:1;fill-rule:nonzero;stroke:none"
         id="path78" />
      <path
         d="m 2851.85,3476.14 h 746.53 c 9.51,0 17.23,7.72 17.23,17.23 0,9.52 -7.72,17.23 -17.23,17.23 h -746.53 c -9.51,0 -17.23,-7.71 -17.23,-17.23 0,-9.51 7.72,-17.23 17.23,-17.23"
         style="fill:#829dd8;fill-opacity:1;fill-rule:nonzero;stroke:none"
         id="path80" />
      <path
         d="m 2576.21,3575.68 h 223.96 c 9.51,0 17.23,7.71 17.23,17.23 0,9.51 -7.72,17.22 -17.23,17.22 h -223.96 c -9.52,0 -17.23,-7.71 -17.23,-17.22 0,-9.52 7.71,-17.23 17.23,-17.23"
         style="fill:#829dd8;fill-opacity:1;fill-rule:nonzero;stroke:none"
         id="path82" />
      <path
         d="m 2545.58,3476.14 h 223.96 c 9.52,0 17.23,7.72 17.23,17.23 0,9.52 -7.71,17.23 -17.23,17.23 h -223.96 c -9.51,0 -17.23,-7.71 -17.23,-17.23 0,-9.51 7.72,-17.23 17.23,-17.23"
         style="fill:#829dd8;fill-opacity:1;fill-rule:nonzero;stroke:none"
         id="path84" />
      <path
         d="m 3460.56,3690.53 h 266.07 c 9.52,0 17.23,7.72 17.23,17.23 0,9.52 -7.71,17.23 -17.23,17.23 h -266.07 c -9.51,0 -17.23,-7.71 -17.23,-17.23 0,-9.51 7.72,-17.23 17.23,-17.23"
         style="fill:#829dd8;fill-opacity:1;fill-rule:nonzero;stroke:none"
         id="path86" />
      <path
         d="m 3590.94,3201.56 v 5.75 h -397.32 v -2.69 h 2.68 c 0,1.48 -1.17,2.66 -2.68,2.69 v -2.69 h 2.68 -2.67 l 2.59,-0.68 0.08,0.68 h -2.67 l 2.59,-0.68 17.78,68.33 -2.6,0.68 v -2.69 c 1.22,0 2.29,0.83 2.6,2.01 l -2.6,0.68 v -2.69 h 397.32 v 2.69 h -2.68 c 0,-1.47 1.16,-2.66 2.68,-2.69 v 2.69 h -2.68 2.62 l -2.54,0.65 -0.08,-0.65 h 2.62 l -2.54,0.65 -17.78,-68.3 2.6,-0.67 v 2.68 c -1.23,-0.01 -2.29,-0.83 -2.6,-2.01 l 2.6,-0.67 v 2.68 -5.75 -5.74 c 4.01,0 7.5,2.72 8.51,6.58 l 17.79,68.33 v 0.01 l 0.28,2.21 c -0.01,4.75 -3.81,8.77 -8.8,8.8 H 3211.4 c -4,0 -7.5,-2.71 -8.51,-6.58 l -17.79,-68.33 v 0.01 l -0.28,-2.23 c 0.01,-4.76 3.83,-8.77 8.8,-8.8 h 397.32 v 5.74"
         style="fill:#7590d1;fill-opacity:1;fill-rule:nonzero;stroke:none"
         id="path88" />
      <path
         d="m 3097.08,3201.56 v 5.75 h -397.32 v -2.69 h 2.69 c -0.01,1.47 -1.17,2.66 -2.69,2.69 v -2.69 h 2.69 -2.68 l 2.59,-0.68 0.09,0.68 h -2.68 l 2.59,-0.68 v 0.01 l 17.78,68.32 -2.59,0.68 v -2.69 c 1.21,0 2.29,0.83 2.59,2.01 l -2.59,0.68 v -2.69 h 397.31 v 2.69 h -2.68 c 0,-1.48 1.17,-2.67 2.68,-2.69 v 2.69 h -2.68 2.64 l -2.56,0.66 -0.08,-0.66 h 2.64 l -2.56,0.66 -17.78,-68.31 2.6,-0.67 v 2.68 c -1.23,-0.01 -2.29,-0.83 -2.6,-2.01 l 2.6,-0.67 v 2.68 -5.75 -5.74 c 4.02,0 7.51,2.72 8.52,6.58 l 17.78,68.33 v 0.01 l 0.29,2.21 c -0.01,4.75 -3.83,8.77 -8.81,8.8 h -397.31 c -4,0 -7.51,-2.71 -8.52,-6.58 l -17.78,-68.33 v 0.01 l -0.29,-2.23 c 0.01,-4.75 3.82,-8.77 8.8,-8.8 h 397.32 v 5.74"
         style="fill:#7590d1;fill-opacity:1;fill-rule:nonzero;stroke:none"
         id="path90" />
      <path
         d="m 3554.36,3971.92 h 465.141 v 11.4766 H 3554.36 Z"
         style="fill:#7590d1;fill-opacity:1;fill-rule:nonzero;stroke:none"
         id="path92" />
      <path
         d="M 4469.5,1954.37 H 2324.08 c -22.55,0 -39.02,21.31 -33.34,43.14 L 2491.02,2767 c 3.95,15.18 17.66,25.78 33.34,25.78 h 2145.42 c 22.55,0 39.02,-21.31 33.34,-43.13 l -200.28,-769.51 c -3.95,-15.17 -17.66,-25.77 -33.34,-25.77"
         style="fill:#c7dbf3;fill-opacity:1;fill-rule:nonzero;stroke:none"
         id="path94" />
      <path
         d="m 2618.32,2610.93 h 746.53 c 9.51,0 17.23,7.72 17.23,17.23 0,9.52 -7.72,17.23 -17.23,17.23 h -746.53 c -9.51,0 -17.23,-7.71 -17.23,-17.23 0,-9.51 7.72,-17.23 17.23,-17.23"
         style="fill:#b2bfe7;fill-opacity:1;fill-rule:nonzero;stroke:none"
         id="path96" />
      <path
         d="m 2560.9,2266.38 h 746.53 c 9.51,0 17.23,7.72 17.23,17.23 0,9.51 -7.72,17.23 -17.23,17.23 H 2560.9 c -9.52,0 -17.23,-7.72 -17.23,-17.23 0,-9.51 7.71,-17.23 17.23,-17.23"
         style="fill:#b2bfe7;fill-opacity:1;fill-rule:nonzero;stroke:none"
         id="path98" />
      <path
         d="m 2874.82,2396.55 h 746.53 c 9.52,0 17.23,7.71 17.23,17.23 0,9.51 -7.71,17.22 -17.23,17.22 h -746.53 c -9.51,0 -17.23,-7.71 -17.23,-17.22 0,-9.52 7.72,-17.23 17.23,-17.23"
         style="fill:#b2bfe7;fill-opacity:1;fill-rule:nonzero;stroke:none"
         id="path100" />
      <path
         d="m 2599.18,2496.08 h 223.96 c 9.52,0 17.23,7.71 17.23,17.23 0,9.51 -7.71,17.23 -17.23,17.23 h -223.96 c -9.51,0 -17.23,-7.72 -17.23,-17.23 0,-9.52 7.72,-17.23 17.23,-17.23"
         style="fill:#b2bfe7;fill-opacity:1;fill-rule:nonzero;stroke:none"
         id="path102" />
      <path
         d="m 2568.55,2396.55 h 223.96 c 9.52,0 17.23,7.71 17.23,17.23 0,9.51 -7.71,17.22 -17.23,17.22 h -223.96 c -9.51,0 -17.23,-7.71 -17.23,-17.22 0,-9.52 7.72,-17.23 17.23,-17.23"
         style="fill:#b2bfe7;fill-opacity:1;fill-rule:nonzero;stroke:none"
         id="path104" />
      <path
         d="m 3483.53,2610.93 h 266.07 c 9.52,0 17.23,7.72 17.23,17.23 0,9.52 -7.71,17.23 -17.23,17.23 h -266.07 c -9.51,0 -17.23,-7.71 -17.23,-17.23 0,-9.51 7.72,-17.23 17.23,-17.23"
         style="fill:#b2bfe7;fill-opacity:1;fill-rule:nonzero;stroke:none"
         id="path106" />
      <path
         d="m 3613.91,2121.97 v 5.74 h -397.32 v -2.69 h 2.69 c -0.01,1.49 -1.18,2.67 -2.69,2.69 v -2.69 h 2.69 -2.68 l 2.59,-0.69 0.09,0.69 h -2.68 l 2.59,-0.69 17.78,68.34 -2.59,0.68 v -2.69 c 1.2,0 2.28,0.82 2.59,2.01 l -2.59,0.68 v -2.69 h 397.31 v 2.7 h -2.68 c 0,-1.49 1.18,-2.68 2.68,-2.7 v 2.7 h -2.68 2.61 l -2.53,0.65 -0.08,-0.65 h 2.61 l -2.53,0.65 -17.78,-68.31 2.6,-0.67 v 2.68 c -1.2,0.01 -2.29,-0.82 -2.6,-2.01 l 2.6,-0.67 v 2.68 -5.74 -5.74 c 3.99,-0.01 7.51,2.7 8.52,6.58 l 17.78,68.32 v 0.01 l 0.28,2.22 c -0.01,4.76 -3.83,8.76 -8.8,8.79 h -397.31 c -4,0 -7.51,-2.7 -8.52,-6.58 l -17.78,-68.33 v 0.02 l -0.29,-2.24 c 0.01,-4.77 3.84,-8.77 8.8,-8.79 h 397.32 v 5.74"
         style="fill:#8cade0;fill-opacity:1;fill-rule:nonzero;stroke:none"
         id="path108" />
      <path
         d="m 3120.05,2121.97 v 5.74 h -397.31 v -2.69 h 2.67 c 0,1.48 -1.18,2.67 -2.67,2.69 v -2.69 h 2.67 -2.66 l 2.58,-0.67 0.08,0.67 h -2.66 l 2.58,-0.67 17.78,68.32 -2.6,0.68 v -2.69 c 1.22,0 2.29,0.83 2.6,2.01 l -2.6,0.68 v -2.69 h 397.32 v 2.69 h -2.68 c 0,-1.47 1.17,-2.67 2.68,-2.69 v 2.69 h -2.68 2.62 l -2.54,0.66 -0.08,-0.66 h 2.62 l -2.54,0.66 0.01,0.01 -17.79,-68.32 2.6,-0.67 v 2.68 c -1.22,0 -2.29,-0.82 -2.6,-2.01 l 2.6,-0.67 v 2.68 -5.74 -5.74 c 4,0 7.5,2.7 8.52,6.58 l 17.78,68.32 v 0.01 l 0.28,2.21 c 0,4.75 -3.82,8.77 -8.8,8.8 h -397.32 c -4,0 -7.5,-2.7 -8.51,-6.58 l -17.79,-68.33 -0.28,-2.22 c 0.01,-4.75 3.84,-8.77 8.81,-8.79 h 397.31 v 5.74"
         style="fill:#8cade0;fill-opacity:1;fill-rule:nonzero;stroke:none"
         id="path110" />
      <path
         d="m 4312.23,2221.02 c -20.36,27.13 -102.99,46.86 -125.82,73.99 -11.66,13.85 -11.66,39.61 -8.87,61.49 8.12,5.19 14.88,10.38 18.89,15.22 6.86,10.02 14.6,24.02 22.36,39.39 2.33,-2.29 5.45,-4.08 9.5,-3.95 10.84,0.32 52.14,56.53 41.49,69.56 -6.08,7.44 -15.92,0.98 -23.23,-5.92 10.93,25.03 18.62,44.22 18.62,44.22 h -0.42 c 1.04,3.15 1.99,6.33 2.8,9.55 16.38,65.72 -23.61,118.99 -89.32,118.99 -65.71,0 -132.27,-53.27 -148.65,-118.99 -0.8,-3.22 -1.43,-6.4 -1.97,-9.55 h -0.42 c 0,0 -1.87,-19.19 -3.42,-44.22 -3.87,6.9 -10.48,13.36 -20.29,5.92 -17.14,-13.03 -3.86,-69.24 6.81,-69.56 3.98,-0.13 8,1.66 11.48,3.95 0.09,-15.37 0.84,-29.37 2.7,-39.39 1.97,-5.91 7.73,-12.37 15.22,-18.68 -8.18,-21.08 -20.63,-44.9 -38.23,-58.03 -36.36,-27.13 -128.82,-46.86 -162.7,-73.99 -30.49,-24.39 -57.69,-95.65 -62.85,-109.73 h 544.44 c 1.86,14.08 10.19,85.34 -8.12,109.73"
         style="fill:#99bbe6;fill-opacity:1;fill-rule:nonzero;stroke:none"
         id="path112" />
      <path
         d="m 2895.93,1101.71 h -328.74 c 102.91,17.06 204.69,38.88 303.61,62.95 h 41.51 l -16.38,-62.95"
         style="fill:#e7f1fa;fill-opacity:1;fill-rule:nonzero;stroke:none"
         id="path114" />
      <path
         d="m 2567.19,1101.71 h -63.03 l 16.39,62.95 h 350.25 c -98.92,-24.07 -200.7,-45.89 -303.61,-62.95"
         style="fill:#dbebf9;fill-opacity:1;fill-rule:nonzero;stroke:none"
         id="path116" />
      <path
         d="M 4247.46,928.371 H 2102.04 c -22.56,0 -39.03,21.301 -33.35,43.129 l 24.54,94.29 c 20.58,-0.67 41.18,-1 61.86,-1 113.5,0 228.36,9.83 342.21,26.11 1.03,-0.43 2.18,-0.67 3.39,-0.68 h 397.32 v 5.74 3.05 2.7 -5.75 -5.74 c 3.99,0 7.5,2.69 8.52,6.6 l 17.77,68.31 0.29,2.23 c 0,4.41 -3.28,8.17 -7.73,8.72 353.02,89.03 666,202.2 860.5,222.13 2.97,-9.78 7.09,-16.95 10.89,-17.06 0.12,0 0.24,-0.01 0.37,-0.01 3.85,0 7.73,1.75 11.1,3.96 0.09,-15.36 0.85,-29.37 2.71,-39.39 1.97,-5.9 7.73,-12.36 15.21,-18.66 -8.17,-21.1 -20.62,-44.91 -38.23,-58.05 -36.35,-27.12 -128.81,-46.85 -162.7,-73.97 -30.49,-24.41 -57.69,-95.67 -62.85,-109.74 h 544.45 c 1.85,14.07 10.19,85.33 -8.13,109.74 -20.36,27.12 -102.99,46.85 -125.81,73.97 -11.67,13.86 -11.66,39.61 -8.88,61.5 8.13,5.19 14.89,10.38 18.9,15.21 6.19,9.05 13.11,21.35 20.09,34.96 110.03,-25.39 230.52,-71.19 366.17,-119.72 L 4280.8,954.148 c -3.96,-15.187 -17.66,-25.777 -33.34,-25.777 m -855.6,173.339 v -5.75 -5.74 h 0.01 c 3.99,0 7.5,2.7 8.51,6.58 l 17.79,68.33 v 0.02 l 0.28,2.2 c 0,4.76 -3.81,8.77 -8.8,8.8 h -397.32 c -4.03,-0.01 -7.51,-2.71 -8.52,-6.61 l -17.77,-68.28 v 0 l -0.01,-0.02 0.01,0.02 -0.3,-2.25 c 0.01,-4.76 3.82,-8.76 8.81,-8.79 h 397.31 v 5.74 3.06 2.69"
         style="fill:#e7f1fa;fill-opacity:1;fill-rule:nonzero;stroke:none"
         id="path118" />
      <path
         d="m 2155.09,1064.79 c -20.68,0 -41.28,0.33 -61.86,1 L 2268.98,1741 c 3.95,15.18 17.65,25.77 33.34,25.77 h 2145.41 c 22.56,0 39.03,-21.3 33.35,-43.12 l -120.43,-462.7 c -135.65,48.53 -256.14,94.33 -366.17,119.72 0.75,1.47 1.5,2.94 2.25,4.43 2.28,-2.21 5.28,-3.96 9.13,-3.96 0.13,0 0.25,0.01 0.38,0.01 10.85,0.32 52.14,56.53 41.5,69.56 -1.93,2.35 -4.23,3.32 -6.7,3.32 -5.36,0 -11.54,-4.51 -16.53,-9.23 10.93,25.02 18.61,44.21 18.61,44.21 h -0.41 c 1.04,3.16 1.99,6.34 2.79,9.56 16.39,65.71 -23.6,118.99 -89.31,118.99 -65.72,0 -132.27,-53.28 -148.65,-118.99 -0.8,-3.22 -1.43,-6.4 -1.97,-9.56 h -0.42 c 0,0 -1.87,-19.19 -3.43,-44.21 -2.64,4.72 -6.57,9.23 -11.92,9.23 -2.48,0 -5.26,-0.96 -8.36,-3.32 -11.06,-8.4 -9.47,-34.75 -4.08,-52.5 -194.5,-19.93 -507.48,-133.1 -860.5,-222.13 -0.35,0.04 -0.71,0.07 -1.07,0.07 h -397.32 c -4.02,0 -7.51,-2.73 -8.52,-6.59 l -17.78,-68.32 -0.29,-2.22 c 0,-3.6 2.19,-6.77 5.42,-8.12 -113.85,-16.28 -228.71,-26.11 -342.21,-26.11 m 183.76,210.04 c -9.52,0 -17.23,-7.71 -17.23,-17.23 0,-9.51 7.71,-17.22 17.23,-17.22 h 746.53 c 9.52,0 17.23,7.71 17.23,17.22 0,9.52 -7.71,17.23 -17.23,17.23 H 2338.85 M 2652.77,1405 c -9.51,0 -17.22,-7.72 -17.22,-17.23 0,-9.51 7.71,-17.23 17.22,-17.23 h 746.54 c 9.51,0 17.23,7.72 17.23,17.23 0,9.51 -7.72,17.23 -17.23,17.23 h -746.54 m -306.26,0 c -9.52,0 -17.23,-7.72 -17.23,-17.23 0,-9.51 7.71,-17.23 17.23,-17.23 h 223.96 c 9.51,0 17.22,7.72 17.22,17.23 0,9.51 -7.71,17.23 -17.22,17.23 h -223.96 m 30.62,99.54 c -9.51,0 -17.22,-7.71 -17.22,-17.23 0,-9.51 7.71,-17.23 17.22,-17.23 h 223.97 c 9.51,0 17.22,7.72 17.22,17.23 0,9.52 -7.71,17.23 -17.22,17.23 h -223.97 m 884.36,114.84 c -9.52,0 -17.23,-7.71 -17.23,-17.23 0,-9.51 7.71,-17.22 17.23,-17.22 h 266.07 c 9.51,0 17.23,7.71 17.23,17.22 0,9.52 -7.72,17.23 -17.23,17.23 h -266.07 m -865.21,0 c -9.52,0 -17.23,-7.71 -17.23,-17.23 0,-9.51 7.71,-17.22 17.23,-17.22 h 746.53 c 9.51,0 17.23,7.71 17.23,17.22 0,9.52 -7.72,17.23 -17.23,17.23 h -746.53"
         style="fill:#dbebf9;fill-opacity:1;fill-rule:nonzero;stroke:none"
         id="path120" />
      <path
         d="m 3389.79,1101.71 h -391.77 l 16.39,62.95 h 391.77 l -16.39,-62.95"
         style="fill:#e7f1fa;fill-opacity:1;fill-rule:nonzero;stroke:none"
         id="path122" />
      <path
         d="m 3142.81,1584.93 h -746.53 c -9.52,0 -17.23,7.71 -17.23,17.22 0,9.52 7.71,17.23 17.23,17.23 h 746.53 c 9.51,0 17.23,-7.71 17.23,-17.23 0,-9.51 -7.72,-17.22 -17.23,-17.22"
         style="fill:#d2dff4;fill-opacity:1;fill-rule:nonzero;stroke:none"
         id="path124" />
      <path
         d="m 3085.38,1240.38 h -746.53 c -9.52,0 -17.23,7.71 -17.23,17.22 0,9.52 7.71,17.23 17.23,17.23 h 746.53 c 9.52,0 17.23,-7.71 17.23,-17.23 0,-9.51 -7.71,-17.22 -17.23,-17.22"
         style="fill:#d2dff4;fill-opacity:1;fill-rule:nonzero;stroke:none"
         id="path126" />
      <path
         d="m 3399.31,1370.54 h -746.54 c -9.51,0 -17.22,7.72 -17.22,17.23 0,9.51 7.71,17.23 17.22,17.23 h 746.54 c 9.51,0 17.23,-7.72 17.23,-17.23 0,-9.51 -7.72,-17.23 -17.23,-17.23"
         style="fill:#d2dff4;fill-opacity:1;fill-rule:nonzero;stroke:none"
         id="path128" />
      <path
         d="m 2601.1,1470.08 h -223.97 c -9.51,0 -17.22,7.72 -17.22,17.23 0,9.52 7.71,17.23 17.22,17.23 h 223.97 c 9.51,0 17.22,-7.71 17.22,-17.23 0,-9.51 -7.71,-17.23 -17.22,-17.23"
         style="fill:#d2dff4;fill-opacity:1;fill-rule:nonzero;stroke:none"
         id="path130" />
      <path
         d="m 2570.47,1370.54 h -223.96 c -9.52,0 -17.23,7.72 -17.23,17.23 0,9.51 7.71,17.23 17.23,17.23 h 223.96 c 9.51,0 17.22,-7.72 17.22,-17.23 0,-9.51 -7.71,-17.23 -17.22,-17.23"
         style="fill:#d2dff4;fill-opacity:1;fill-rule:nonzero;stroke:none"
         id="path132" />
      <path
         d="m 3527.56,1584.93 h -266.07 c -9.52,0 -17.23,7.71 -17.23,17.22 0,9.52 7.71,17.23 17.23,17.23 h 266.07 c 9.51,0 17.23,-7.71 17.23,-17.23 0,-9.51 -7.72,-17.22 -17.23,-17.22"
         style="fill:#d2dff4;fill-opacity:1;fill-rule:nonzero;stroke:none"
         id="path134" />
      <path
         d="m 3391.87,1090.22 h -0.01 v 5.74 5.75 -2.69 -3.06 -5.74 h -397.31 c -4.99,0.03 -8.8,4.03 -8.81,8.79 l 0.3,2.25 17.77,68.28 c 1.01,3.9 4.49,6.6 8.52,6.61 h 397.32 c 4.99,-0.03 8.8,-4.04 8.8,-8.8 l -0.28,-2.2 v -0.02 l -17.79,-68.33 c -1.01,-3.88 -4.52,-6.58 -8.51,-6.58 m -393.85,11.49 h 391.77 l 16.39,62.95 h -391.77 l -16.39,-62.95 m -11.99,-0.47 0.01,0.02 v 0 l -0.01,-0.02"
         style="fill:#ccddf3;fill-opacity:1;fill-rule:nonzero;stroke:none"
         id="path136" />
      <path
         d="m 2898.01,1090.22 h -397.32 c -1.21,0.01 -2.36,0.25 -3.39,0.68 23.35,3.34 46.64,6.95 69.89,10.81 h 328.74 l 16.38,62.95 h -41.51 c 15.45,3.76 30.76,7.56 46.06,11.42 4.45,-0.55 7.73,-4.31 7.73,-8.72 l -0.29,-2.23 -17.77,-68.31 c -1.02,-3.91 -4.53,-6.6 -8.52,-6.6 v 5.74 5.75 -2.7 -3.05 -5.74"
         style="fill:#ccddf3;fill-opacity:1;fill-rule:nonzero;stroke:none"
         id="path138" />
      <path
         d="m 2497.3,1090.9 c -3.23,1.35 -5.42,4.52 -5.42,8.12 l 0.29,2.22 17.78,68.32 c 1.01,3.86 4.5,6.59 8.52,6.59 h 397.32 c 0.36,0 0.72,-0.03 1.07,-0.07 -15.3,-3.86 -30.61,-7.66 -46.06,-11.42 h -350.25 l -16.39,-62.95 h 63.03 c -23.25,-3.86 -46.54,-7.47 -69.89,-10.81"
         style="fill:#c0d7f1;fill-opacity:1;fill-rule:nonzero;stroke:none"
         id="path140" />
      <path
         d="m 4098.31,1085.29 h -544.45 c 5.16,14.07 32.36,85.33 62.85,109.74 33.89,27.12 126.35,46.85 162.7,73.97 17.61,13.14 30.06,36.95 38.23,58.05 -7.48,6.3 -13.24,12.76 -15.21,18.66 -1.86,10.02 -2.62,24.03 -2.71,39.39 -3.37,-2.21 -7.25,-3.96 -11.1,-3.96 -0.13,0 -0.25,0.01 -0.37,0.01 -3.8,0.11 -7.92,7.28 -10.89,17.06 10.21,1.04 20.11,1.84 29.65,2.35 8.83,0.48 17.69,0.71 26.64,0.71 51.32,0 104.72,-7.65 160.83,-20.6 -6.98,-13.61 -13.9,-25.91 -20.09,-34.96 -4.01,-4.83 -10.77,-10.02 -18.9,-15.21 -2.78,-21.89 -2.79,-47.64 8.88,-61.5 22.82,-27.12 105.45,-46.85 125.81,-73.97 18.32,-24.41 9.98,-95.67 8.13,-109.74"
         style="fill:#d1e2f5;fill-opacity:1;fill-rule:nonzero;stroke:none"
         id="path142" />
      <path
         d="m 3994.48,1380.67 c -56.11,12.95 -109.51,20.6 -160.83,20.6 -8.95,0 -17.81,-0.23 -26.64,-0.71 -9.54,-0.51 -19.44,-1.31 -29.65,-2.35 -5.39,17.75 -6.98,44.1 4.08,52.5 3.1,2.36 5.88,3.32 8.36,3.32 5.35,0 9.28,-4.51 11.92,-9.23 1.56,25.02 3.43,44.21 3.43,44.21 h 0.42 c 0.54,3.16 1.17,6.34 1.97,9.56 16.38,65.71 82.93,118.99 148.65,118.99 65.71,0 105.7,-53.28 89.31,-118.99 -0.8,-3.22 -1.75,-6.4 -2.79,-9.56 h 0.41 c 0,0 -7.68,-19.19 -18.61,-44.21 4.99,4.72 11.17,9.23 16.53,9.23 2.47,0 4.77,-0.97 6.7,-3.32 10.64,-13.03 -30.65,-69.24 -41.5,-69.56 -0.13,0 -0.25,-0.01 -0.38,-0.01 -3.85,0 -6.85,1.75 -9.13,3.96 -0.75,-1.49 -1.5,-2.96 -2.25,-4.43"
         style="fill:#c6ddf4;fill-opacity:1;fill-rule:nonzero;stroke:none"
         id="path144" />
      <path
         d="m 3818.51,918.801 h 382.84 v 11.4805 h -382.84 z"
         style="fill:#7590d1;fill-opacity:1;fill-rule:nonzero;stroke:none"
         id="path146" />
      <path
         d="m 2516.87,1944.8 h 911.148 v 11.4883 H 2516.87 Z"
         style="fill:#7590d1;fill-opacity:1;fill-rule:nonzero;stroke:none"
         id="path148" />
      <path
         d="m 3636.67,1944.8 h 222.039 v 11.4883 H 3636.67 Z"
         style="fill:#7590d1;fill-opacity:1;fill-rule:nonzero;stroke:none"
         id="path150" />
      <path
         d="m 4595.67,2783.21 h 76.96 c 7.99,-0.01 14.89,-3.23 19.91,-8.34 5.01,-5.12 8.01,-12.1 8.01,-19.49 0,-2.71 -0.4,-5.48 -1.26,-8.27 l -32.54,-105.78 10.98,-3.37 32.54,105.77 c 1.2,3.89 1.77,7.81 1.77,11.65 -0.01,10.52 -4.26,20.33 -11.29,27.52 -7.03,7.19 -16.96,11.8 -28.12,11.79 h -76.96 v -11.48"
         style="fill:#7590d1;fill-opacity:1;fill-rule:nonzero;stroke:none"
         id="path152" />
      <path
         d="m 2158.11,4141.98 h -39.27 c -9.85,0 -15.85,7.99 -13.39,17.84 l 9.79,39.27 c 2.45,9.85 12.43,17.84 22.29,17.84 h 39.26 c 9.86,0 15.86,-7.99 13.4,-17.84 l -9.79,-39.27 c -2.46,-9.85 -12.44,-17.84 -22.29,-17.84"
         style="fill:#c7dbf3;fill-opacity:1;fill-rule:nonzero;stroke:none"
         id="path154" />
      <path
         d="m 2129.41,4026.87 h -39.27 c -9.86,0 -15.85,7.99 -13.4,17.84 l 9.79,39.27 c 2.46,9.86 12.45,17.84 22.3,17.84 h 39.26 c 9.86,0 15.86,-7.98 13.4,-17.84 l -9.79,-39.27 c -2.46,-9.85 -12.44,-17.84 -22.29,-17.84"
         style="fill:#f2f7fc;fill-opacity:1;fill-rule:nonzero;stroke:none"
         id="path156" />
      <path
         d="m 2254.33,4026.87 h -39.26 c -9.86,0 -15.86,7.99 -13.4,17.84 l 9.79,39.27 c 2.46,9.86 12.44,17.84 22.3,17.84 h 39.26 c 9.85,0 15.85,-7.98 13.39,-17.84 l -9.79,-39.27 c -2.45,-9.85 -12.43,-17.84 -22.29,-17.84"
         style="fill:#c7dbf3;fill-opacity:1;fill-rule:nonzero;stroke:none"
         id="path158" />
      <path
         d="m 2379.25,4026.87 h -39.26 c -9.86,0 -15.85,7.99 -13.4,17.84 l 9.79,39.27 c 2.46,9.86 12.44,17.84 22.3,17.84 h 39.26 c 9.86,0 15.86,-7.98 13.4,-17.84 l -9.79,-39.27 c -2.46,-9.85 -12.44,-17.84 -22.3,-17.84"
         style="fill:#f2f7fc;fill-opacity:1;fill-rule:nonzero;stroke:none"
         id="path160" />
      <path
         d="m 2100.04,3909.08 h -39.26 c -9.86,0 -15.86,7.99 -13.4,17.85 l 9.79,39.26 c 2.46,9.86 12.44,17.85 22.29,17.85 h 39.27 c 9.85,0 15.85,-7.99 13.39,-17.85 l -9.78,-39.26 c -2.47,-9.86 -12.45,-17.85 -22.3,-17.85"
         style="fill:#f2f7fc;fill-opacity:1;fill-rule:nonzero;stroke:none"
         id="path162" />
      <path
         d="m 2068.67,3783.27 h -39.26 c -9.86,0 -15.86,7.99 -13.4,17.85 l 9.79,39.25 c 2.46,9.86 12.44,17.85 22.29,17.85 h 39.26 c 9.86,0 15.86,-7.99 13.4,-17.85 l -9.79,-39.25 c -2.45,-9.86 -12.44,-17.85 -22.29,-17.85"
         style="fill:#f2f7fc;fill-opacity:1;fill-rule:nonzero;stroke:none"
         id="path164" />
      <path
         d="m 2224.96,3909.08 h -39.26 c -9.86,0 -15.85,7.99 -13.4,17.85 l 9.79,39.26 c 2.46,9.86 12.44,17.85 22.3,17.85 h 39.26 c 9.86,0 15.85,-7.99 13.4,-17.85 l -9.79,-39.26 c -2.46,-9.86 -12.44,-17.85 -22.3,-17.85"
         style="fill:#f2f7fc;fill-opacity:1;fill-rule:nonzero;stroke:none"
         id="path166" />
      <path
         d="m 2170.23,3689.57 h -39.26 c -9.86,0 -15.86,8 -13.4,17.85 l 9.79,39.26 c 2.46,9.86 12.44,17.85 22.3,17.85 h 39.26 c 9.86,0 15.85,-7.99 13.4,-17.85 l -9.79,-39.26 c -2.46,-9.85 -12.44,-17.85 -22.3,-17.85"
         style="fill:#c7dbf3;fill-opacity:1;fill-rule:nonzero;stroke:none"
         id="path168" />
      <path
         d="m 2868.12,4150.11 c -23.23,-77.39 -102.56,-139.87 -180.63,-142.34 -83.94,-2.67 -136.32,62.47 -119,144.39 l 2.42,9.73 h -0.09 c 22.33,81.16 104.98,146.33 186.65,146.33 4.23,0 8.36,-0.22 12.41,-0.57 78.02,-6.59 122.93,-75.26 98.24,-157.54 z m -80.29,220.43 v 0.02 l -0.59,0.03 -1.78,0.16 -0.01,-0.05 c -4.05,0.25 -8.12,0.43 -12.29,0.43 -116.42,0 -234.24,-93.33 -265.25,-209.24 l -1.39,-5.55 h -0.05 l -0.37,-1.73 -0.89,-3.54 h 0.12 c -25.55,-117.49 49.83,-211 170.52,-206.11 110.05,4.45 221.03,92.28 254.06,201.15 35.82,118.07 -29.38,216.55 -142.08,224.43"
         style="fill:#efeff9;fill-opacity:1;fill-rule:nonzero;stroke:none"
         id="path170" />
      <path
         d="m 2776.36,4334.27 v 0 c -3.6,-14.47 3.15,-27.03 16.33,-30.52 63.64,-16.84 97.6,-79.76 75.43,-153.64 -23.23,-77.39 -102.56,-139.87 -180.63,-142.34 -76.56,-2.43 -126.9,51.52 -122.03,123.19 1.01,14.79 -9.49,25.38 -24.53,25.38 -19.48,0 -38.89,-17.57 -40.19,-36.74 -6.92,-102.25 65.41,-179.09 175.11,-174.64 110.05,4.45 221.03,92.28 254.06,201.15 31.88,105.09 -16.25,194.7 -106.69,218.69 -18.68,4.96 -41.74,-10 -46.86,-30.53"
         style="fill:#afc3e9;fill-opacity:1;fill-rule:nonzero;stroke:none"
         id="path172" />
      <path
         d="m 3223.37,4029.58 -0.59,-0.05 c -2.48,-0.15 -4.96,-0.26 -7.44,-0.3 l -2.56,-0.07 c -82.99,0 -133.49,67.28 -112.8,150.27 20.69,83 104.74,150.27 187.74,150.27 l 2.52,-0.06 c 2.47,-0.04 4.91,-0.15 7.32,-0.31 l 0.62,-0.05 c 76.7,-5.43 122.14,-70.42 102.33,-149.85 l -0.5,-1.85 c -20.56,-78.62 -97.83,-142.66 -176.64,-148 z m 94.7,362.44 0.01,0.02 -0.56,0.03 -2.24,0.13 c -3.91,0.23 -7.85,0.41 -11.88,0.41 -117.73,0 -236.97,-95.45 -266.33,-213.18 -29.35,-117.73 42.29,-213.17 160.03,-213.17 4.01,0 8.03,0.17 12.05,0.41 l 2.28,0.12 0.63,0.03 v 0.02 c 112.09,7.58 222,98.84 250.86,210.74 l 0.5,1.85 c 28.11,112.75 -36.44,204.98 -145.35,212.59"
         style="fill:#ffffff;fill-opacity:1;fill-rule:nonzero;stroke:none"
         id="path174" />
      <path
         d="m 3390.85,4151.34 c -26.42,-60.27 -85.65,-107.79 -148.73,-119.41 -15.76,-2.89 -30.02,-15.67 -33.83,-30.98 -4.94,-19.81 9.45,-34.59 29.83,-30.88 89.92,16.32 174.41,84.12 211.86,170.07 8.46,19.44 -1.8,37.44 -21.57,37.44 h -0.01 c -15.35,0 -30.93,-11.15 -37.55,-26.24"
         style="fill:#c7dbf3;fill-opacity:1;fill-rule:nonzero;stroke:none"
         id="path176" />
      <path
         d="m 2752.53,3641.83 h -397.32 c -2,0 -3.47,1.89 -2.96,3.83 l 17.78,68.32 c 0.35,1.34 1.57,2.29 2.96,2.29 h 397.32 c 2,0 3.47,-1.9 2.96,-3.83 l -17.78,-68.33 c -0.35,-1.34 -1.57,-2.28 -2.96,-2.28"
         style="fill:#f2f7fc;fill-opacity:1;fill-rule:nonzero;stroke:none"
         id="path178" />
      <path
         d="m 4668.71,3441.69 c -24.29,-97.43 -122.96,-176.4 -220.38,-176.4 -97.44,0 -156.72,78.97 -132.43,176.4 24.29,97.42 122.96,176.4 220.39,176.4 97.43,0 156.71,-78.98 132.42,-176.4"
         style="fill:#829dd8;fill-opacity:1;fill-rule:nonzero;stroke:none"
         id="path180" />
      <path
         d="m 4753.06,3252.18 c -6.65,-26.66 -33.65,-48.28 -60.32,-48.28 -26.66,0 -42.89,21.62 -36.24,48.28 6.65,26.67 33.65,48.28 60.31,48.28 26.67,0 42.89,-21.61 36.25,-48.28"
         style="fill:#829dd8;fill-opacity:1;fill-rule:nonzero;stroke:none"
         id="path182" />
      <path
         d="m 4446.82,3352.04 c -5.55,0 -10.57,2.12 -13.75,6.36 l -45.59,60.72 c -6.36,8.47 -2.93,22.21 7.64,30.67 10.59,8.47 24.32,8.47 30.68,0 l 34.07,-45.39 121.75,97.45 c 10.58,8.47 24.3,8.47 30.67,0 6.36,-8.47 2.93,-22.2 -7.65,-30.67 l -140.9,-112.78 c -5.3,-4.24 -11.37,-6.36 -16.92,-6.36"
         style="fill:#ffffff;fill-opacity:1;fill-rule:nonzero;stroke:none"
         id="path184" />
      <path
         d="m 6364.37,428.77 c 0,-34.899 -336.8,-63.18 -752.26,-63.18 -415.47,0 -752.28,28.281 -752.28,63.18 0,34.878 336.81,63.16 752.28,63.16 415.46,0 752.26,-28.282 752.26,-63.16"
         style="fill:#c7dbf3;fill-opacity:1;fill-rule:nonzero;stroke:none"
         id="path186" />
      <path
         d="m 5640.82,3791.98 c 0,0 -19.14,-38.28 -30.63,-122.51 -11.48,-84.22 19.14,-570.42 19.14,-570.42 l 329.24,34.45 -149.31,635.51 -168.44,22.97"
         style="fill:#1f4170;fill-opacity:1;fill-rule:nonzero;stroke:none"
         id="path188" />
      <path
         d="m 5445.57,1738.06 -114.85,-568.5 223.95,-5.74 c 0,0 57.44,505.34 34.46,505.34 -22.97,0 -143.56,68.9 -143.56,68.9"
         style="fill:#3e1f27;fill-opacity:1;fill-rule:nonzero;stroke:none"
         id="path190" />
      <path
         d="m 5966.23,511.07 c 0,0 -84.23,-88.05 -118.68,-107.191 7.65,-15.309 130.16,-15.309 176.1,7.66 45.95,22.973 80.4,76.563 80.4,76.563 l -3.83,-57.422 h 22.97 c 0,0 22.97,80.39 22.97,99.539 0,19.14 -22.97,45.941 -22.97,45.941 l -156.96,-65.09"
         style="fill:#6c2931;fill-opacity:1;fill-rule:nonzero;stroke:none"
         id="path192" />
      <path
         d="m 5931.77,1644.27 84.22,-1033.661 99.54,7.661 c 0,0 114.86,758.02 68.91,1018.35 -45.94,260.32 -252.67,7.65 -252.67,7.65"
         style="fill:#f5775b;fill-opacity:1;fill-rule:nonzero;stroke:none"
         id="path194" />
      <path
         d="m 6015.99,610.609 c 0,0 -30.62,-80.39 -72.73,-118.679 -42.12,-38.282 65.08,-38.282 111.01,0 45.95,38.289 49.78,61.261 65.09,68.922 15.31,7.648 -3.83,57.418 -3.83,57.418 l -99.54,-7.661"
         style="fill:#f5775b;fill-opacity:1;fill-rule:nonzero;stroke:none"
         id="path196" />
      <path
         d="m 5274.95,528.422 c 0,0 -97.86,-72.582 -135.06,-85.652 4.97,-16.391 125.72,-37.028 174.88,-22.129 49.15,14.89 92.15,61.918 92.15,61.918 l -13.46,-55.957 22.65,-3.872 c 0,0 36.19,75.372 39.41,94.239 3.24,18.871 -14.89,49.152 -14.89,49.152 l -165.68,-37.699"
         style="fill:#6c2931;fill-opacity:1;fill-rule:nonzero;stroke:none"
         id="path198" />
      <path
         d="m 5431.99,1651.22 -91.21,-1033.072 99.4,-9.226 c 0,0 240.98,727.808 239.57,992.158 -1.39,264.35 -247.76,50.14 -247.76,50.14"
         style="fill:#f5775b;fill-opacity:1;fill-rule:nonzero;stroke:none"
         id="path200" />
      <path
         d="m 5340.78,618.148 c 0,0 -43.74,-74.078 -91.7,-104.718 -47.97,-30.629 57.69,-48.711 109.43,-18.711 51.74,29.992 59.38,51.992 75.76,56.961 16.39,4.961 5.91,57.242 5.91,57.242 l -99.4,9.226"
         style="fill:#f5775b;fill-opacity:1;fill-rule:nonzero;stroke:none"
         id="path202" />
      <path
         d="m 5079.26,3293.56 -197.91,38.98 c 0,0 -2.99,-26.99 14.99,-32.98 17.99,-6 17.99,-6 17.99,-6 0,0 44.98,-107.95 65.98,-119.95 20.99,-11.99 146.98,-63.98 146.98,-63.98 l 32.94,126.95 -80.97,56.98"
         style="fill:#f35e4e;fill-opacity:1;fill-rule:nonzero;stroke:none"
         id="path204" />
      <path
         d="m 5221.61,3133.5 c 0,0 -1.92,13.4 -28.4,67.1 -29.36,59.53 -35.98,83.96 -35.98,83.96 0,0 -92.96,35.99 -107.96,53.98 -14.99,18 -23.98,20.99 -23.98,20.99 0,0 -18,-32.99 8.99,-56.97 27,-23.99 50.98,-41.99 50.98,-41.99 0,0 -3,-68.97 6,-101.95 8.99,-32.99 36.03,-48.99 36.03,-48.99 l 94.32,23.87"
         style="fill:#f5775b;fill-opacity:1;fill-rule:nonzero;stroke:none"
         id="path206" />
      <path
         d="m 5529.79,3022.48 c 0,0 -133.99,-214.39 -137.82,-195.25 -3.83,19.15 -172.28,313.93 -172.28,313.93 l -92.4,-31.53 c 0,0 138.34,-431.7 226.4,-500.61 0,0 7.65,-11.49 34.45,-7.66 26.8,3.83 233.54,218.22 233.54,218.22 l -91.89,202.9"
         style="fill:#f5775b;fill-opacity:1;fill-rule:nonzero;stroke:none"
         id="path208" />
      <path
         d="m 5655.17,3277.07 c 0,0 -71.78,-28.71 -106.24,-78.48 -34.45,-49.77 -133.99,-275.64 -133.99,-275.64 0,0 53.6,-95.72 176.1,-130.17 l 168.46,310.1 -104.33,174.19"
         style="fill:#e95452;fill-opacity:1;fill-rule:nonzero;stroke:none"
         id="path210" />
      <path
         d="m 5566.16,2542.02 c 0,0 5.74,-91.88 5.74,-126.33 0,0 -137.82,-666.14 -143.56,-821.19 -5.75,-155.05 109.11,-470.89 109.11,-470.89 0,0 493.85,11.48 654.65,45.95 l 17.22,333.06 c 0,0 22.98,579.99 0,746.54 -22.97,166.53 -120.58,252.66 -120.58,252.66 l -28.72,80.4 -493.86,-40.2"
         style="fill:#6c2931;fill-opacity:1;fill-rule:nonzero;stroke:none"
         id="path212" />
      <path
         d="m 5988.24,3317.27 c 0,0 129.21,-60.3 169.4,-123.47 40.2,-63.17 160.79,-404.85 160.79,-404.85 0,0 -134.95,-48.81 -252.67,-48.81 0,0 11.49,-109.11 22.98,-143.57 11.48,-34.45 -28.72,-48.8 -28.72,-48.8 0,0 -281.38,-77.53 -490.99,-31.59 0,0 -25.84,5.75 -25.84,17.23 0,11.48 2.87,40.2 2.87,40.2 0,0 -20.1,195.24 -25.84,229.7 -5.74,34.46 -68.91,128.25 -63.16,165.57 5.74,37.33 103.36,210.57 103.36,210.57 0,0 66.04,77.52 94.75,97.62 28.71,20.09 100.5,20.09 100.5,20.09 l 232.57,20.11"
         style="fill:#e95452;fill-opacity:1;fill-rule:nonzero;stroke:none"
         id="path214" />
      <path
         d="m 5743.38,3420.6 c 0.09,-4.5 16.49,-101.96 -37.49,-170.93 -53.98,-70.47 158.93,-67.47 208.41,4.5 44.98,64.47 40.48,74.97 40.48,74.97 0,0 -35.98,116.95 -25.49,193.41 -2.99,68.97 -188.91,26.99 -185.91,-101.95"
         style="fill:#f5775b;fill-opacity:1;fill-rule:nonzero;stroke:none"
         id="path216" />
      <path
         d="m 5742.02,3827.37 c 0,0 -62.08,-15.88 -97.24,-111.2 -35.16,-95.31 -11.73,-297.84 11.72,-321.67 23.44,-23.83 94.65,-14.72 193.4,17.87 104.32,34.43 139.58,142.91 158.23,214.45 35.7,137.01 -83.44,277.99 -266.11,200.55"
         style="fill:#f5775b;fill-opacity:1;fill-rule:nonzero;stroke:none"
         id="path218" />
      <path
         d="m 5621.68,3719.24 c 0,0 57.42,-137.82 275.63,-145.47 l 50.73,-243.58 c 0,0 92.9,-44.63 129.21,-64.61 0,0 42.11,442.18 -57.43,549.37 -99.53,107.2 -275.64,80.4 -344.55,19.14 -68.91,-61.25 -53.59,-114.85 -53.59,-114.85"
         style="fill:#1f4170;fill-opacity:1;fill-rule:nonzero;stroke:none"
         id="path220" />
      <path
         d="m 5988.24,3317.27 -48.81,45.93 c 0,0 -43.08,-123.46 -195.25,-132.07 0,0 -20.1,31.58 -8.62,77.52 l -25.84,-20.1 c 0,0 -54.55,-77.52 -48.81,-100.49 5.75,-22.97 78.48,17.23 78.48,17.23 0,0 86.14,-51.68 120.6,-54.56 34.45,-2.87 122.51,157.92 128.25,166.54"
         style="fill:#ffffff;fill-opacity:1;fill-rule:nonzero;stroke:none"
         id="path222" />
      <path
         d="m 5900.71,3577.32 c 0,0 23.02,37.97 46.04,23.98 23.02,-13.99 -14.64,-99.91 -46.04,-101.91 -31.4,-2 -14.66,55.95 0,77.93"
         style="fill:#f35e4e;fill-opacity:1;fill-rule:nonzero;stroke:none"
         id="path224" />
      <path
         d="m 5949.21,3066.87 88.05,-313.93 11.06,3.1 -88.05,313.93"
         style="fill:#bb3f48;fill-opacity:1;fill-rule:nonzero;stroke:none"
         id="path226" />
      <path
         d="m 5894.73,3048.42 c 0.25,-0.65 20.8,-62.24 88.61,-103.58 l 5.97,9.81 c -32.14,19.56 -53.1,44.02 -66.03,63.58 -6.46,9.78 -10.9,18.32 -13.72,24.38 -1.4,3.02 -2.4,5.43 -3.04,7.06 l -0.7,1.83 -0.19,0.55 -10.9,-3.63"
         style="fill:#bb3f48;fill-opacity:1;fill-rule:nonzero;stroke:none"
         id="path228" />
      <path
         d="m 6006.36,3124.08 0.02,0.13 c 0.28,1.83 3.73,21.12 17.56,40.18 13.9,19.05 37.61,38.14 80.47,40.91 l -0.72,11.46 c -47.65,-2.89 -75.48,-25.72 -90.51,-47.69 -15.12,-21.97 -18.09,-42.85 -18.19,-43.37 l 11.38,-1.62"
         style="fill:#bb3f48;fill-opacity:1;fill-rule:nonzero;stroke:none"
         id="path230" />
      <path
         d="m 5544.98,3162.33 c -0.03,-0.04 -23.27,-38.23 -46.56,-81.18 -11.65,-21.48 -23.3,-44.15 -32.11,-63.93 -4.4,-9.9 -8.1,-19.07 -10.73,-27.1 -2.61,-8.05 -4.24,-14.85 -4.27,-20.67 l 0.01,-0.75 v 0.03 c 0.33,-10.51 4.49,-23.99 10.36,-39.11 17.65,-45.1 51.6,-103.23 51.67,-103.37 l 4.96,2.9 -5.37,-2.05 74.65,-195.25 10.73,4.1 -74.82,195.68 -0.23,0.41 c -0.01,0.01 -0.93,1.58 -2.57,4.46 -5.73,10.07 -20.14,35.84 -33.16,62.93 -6.5,13.54 -12.66,27.42 -17.2,39.74 -4.56,12.28 -7.41,23.17 -7.54,29.86 v 0.03 l -0.01,0.39 c -0.03,3.52 1.25,9.66 3.71,17.1 8.57,26.25 30.73,69.03 50.65,104.84 9.96,17.93 19.38,34.19 26.3,45.95 6.93,11.77 11.33,19 11.34,19.02 l -9.81,5.97"
         style="fill:#bb3f48;fill-opacity:1;fill-rule:nonzero;stroke:none"
         id="path232" />
      <path
         d="m 5878.66,2515.27 100.5,114.85 -8.64,7.56 -100.5,-114.85"
         style="fill:#bb3f48;fill-opacity:1;fill-rule:nonzero;stroke:none"
         id="path234" />
      <path
         d="m 5033.52,3264.77 -127.9,36.62 3.96,-9.76 c 0.02,-0.06 2.7,-6.65 6.38,-14.28 1.84,-3.83 3.93,-7.91 6.1,-11.61 2.2,-3.71 4.39,-7.01 6.88,-9.53 1,-0.98 2,-1.65 3.2,-2.41 4.44,-2.71 11.85,-6.03 20.92,-9.78 27.05,-11.19 67.74,-25.38 67.79,-25.39 l 3.38,9.68 c -0.02,0.01 -5.13,1.79 -12.94,4.59 -11.73,4.21 -29.51,10.7 -45.01,16.84 -7.74,3.06 -14.92,6.04 -20.43,8.56 -2.75,1.26 -5.09,2.41 -6.82,3.37 l -2.07,1.23 -0.77,0.57 c -1.34,1.31 -3.34,4.14 -5.28,7.47 -2.95,5.01 -5.94,11.2 -8.16,16.09 -1.11,2.45 -2.03,4.57 -2.67,6.08 -0.64,1.51 -0.99,2.38 -0.99,2.38 l -4.76,-1.93 -1.41,-4.93 117.77,-33.72 2.83,9.86"
         style="fill:#e74d4d;fill-opacity:1;fill-rule:nonzero;stroke:none"
         id="path236" />
      <path
         d="m 4927.7,3258.22 c 0.01,-0.04 2.9,-8.71 6.54,-18.17 1.82,-4.73 3.82,-9.66 5.79,-13.87 0.98,-2.12 1.96,-4.05 2.93,-5.73 1,-1.7 1.91,-3.12 3.2,-4.44 1.03,-0.99 1.91,-1.5 2.97,-2.1 3.85,-2.11 10.22,-4.54 18.14,-7.32 23.58,-8.26 59.54,-18.66 59.58,-18.67 l 2.85,9.85 c -0.01,0 -4.52,1.31 -11.41,3.37 -10.34,3.08 -25.98,7.85 -39.52,12.37 -6.76,2.25 -13.01,4.44 -17.73,6.3 -2.35,0.92 -4.33,1.77 -5.74,2.46 l -1.62,0.85 -0.35,0.23 -0.02,0.02 -1.06,-1.27 1.17,1.17 -0.11,0.1 -1.06,-1.27 1.17,1.17 c -0.15,0.12 -0.85,1.03 -1.58,2.32 -2.68,4.6 -6.43,13.78 -9.32,21.55 -1.46,3.9 -2.73,7.49 -3.64,10.1 -0.91,2.61 -1.45,4.22 -1.45,4.22 l -9.73,-3.24"
         style="fill:#e74d4d;fill-opacity:1;fill-rule:nonzero;stroke:none"
         id="path238" />
      <path
         d="m 5046.18,3284.5 37.91,-29.52 29.67,7.55 -2.53,9.94 -24.8,-6.31 -33.95,26.44 -6.3,-8.1"
         style="fill:#e74d4d;fill-opacity:1;fill-rule:nonzero;stroke:none"
         id="path240" />
      <path
         d="m 5756.73,3383.07 c 0.33,0.08 18.96,4.01 42.54,16.78 23.56,12.76 52.15,34.43 71.9,69.98 l -8.97,4.98 c -18.53,-33.37 -45.44,-53.81 -67.82,-65.94 -11.18,-6.05 -21.2,-10.01 -28.39,-12.45 -3.6,-1.22 -6.48,-2.05 -8.45,-2.58 -0.98,-0.26 -1.73,-0.45 -2.23,-0.57 l -0.7,-0.16 2.12,-10.04"
         style="fill:#e74d4d;fill-opacity:1;fill-rule:nonzero;stroke:none"
         id="path242" />
      <path
         d="m 5687.45,3557.47 -14.29,-77.56 29.67,-6.85 2.3,10 -20.1,4.64 12.51,67.91 -10.09,1.86"
         style="fill:#e74d4d;fill-opacity:1;fill-rule:nonzero;stroke:none"
         id="path244" />
      <path
         d="m 5687.61,3440.49 c 0.27,-0.05 7.06,-1.46 17.83,-1.46 14.8,0 37.21,2.67 60.36,15.39 l -4.94,8.99 c -21.2,-11.66 -41.83,-14.12 -55.42,-14.12 -4.94,0 -8.93,0.32 -11.66,0.64 -1.37,0.16 -2.41,0.32 -3.1,0.43 l -0.76,0.14 -0.2,0.03 -2.11,-10.04"
         style="fill:#e74d4d;fill-opacity:1;fill-rule:nonzero;stroke:none"
         id="path246" />
      <path
         d="m 5824.58,3519.21 c 0,-19.55 -15.86,-35.41 -35.41,-35.41 -19.56,0 -35.41,15.86 -35.41,35.41 0,19.56 15.85,35.42 35.41,35.42 19.55,0 35.41,-15.86 35.41,-35.42"
         style="fill:#f1474e;fill-opacity:1;fill-rule:nonzero;stroke:none"
         id="path248" />
      <path
         d="m 5755.67,3567.07 c 0,-4.76 -3.86,-8.62 -8.62,-8.62 -4.76,0 -8.62,3.86 -8.62,8.62 0,4.75 3.86,8.61 8.62,8.61 4.76,0 8.62,-3.86 8.62,-8.61"
         style="fill:#1f4170;fill-opacity:1;fill-rule:nonzero;stroke:none"
         id="path250" />
      <path
         d="m 5662.83,3567.07 c 0,-4.76 -3.86,-8.62 -8.61,-8.62 -4.76,0 -8.62,3.86 -8.62,8.62 0,4.75 3.86,8.61 8.62,8.61 4.75,0 8.61,-3.86 8.61,-8.61"
         style="fill:#1f4170;fill-opacity:1;fill-rule:nonzero;stroke:none"
         id="path252" />
      <path
         d="m 5599.88,2430.3 c 0.36,-0.1 59.05,-18.24 139.07,-18.25 51.77,0 112.51,7.6 172.08,32.8 l -4.47,10.58 c -57.73,-24.43 -116.95,-31.9 -167.61,-31.9 -39.14,0 -73.15,4.46 -97.33,8.91 -12.09,2.22 -21.72,4.44 -28.31,6.1 -3.29,0.83 -5.82,1.52 -7.52,2 -1.7,0.48 -2.51,0.73 -2.52,0.73 l -3.39,-10.97"
         style="fill:#501f23;fill-opacity:1;fill-rule:nonzero;stroke:none"
         id="path254" />
      <path
         d="m 5646.66,2373.87 c 0.49,-0.17 22.72,-7.5 62.39,-7.5 36.83,-0.01 88.69,6.33 152.03,30.55 l -4.1,10.73 c -62.01,-23.71 -112.41,-29.8 -147.93,-29.8 -19.13,0 -33.94,1.77 -43.91,3.52 -4.98,0.87 -8.76,1.74 -11.26,2.38 -1.24,0.32 -2.17,0.58 -2.78,0.76 l -0.65,0.2 -0.16,0.05 -3.63,-10.89"
         style="fill:#501f23;fill-opacity:1;fill-rule:nonzero;stroke:none"
         id="path256" />
      <path
         d="m 5846.57,2017.59 -303.36,-175.15 -232.58,402.83 303.37,175.15 232.57,-402.83"
         style="fill:#ffffff;fill-opacity:1;fill-rule:nonzero;stroke:none"
         id="path258" />
      <path
         d="m 5901.14,2264.47 c 0,0 -47.85,-52.65 -62.21,-64.13 -14.35,-11.49 -111.98,-20.1 -111.98,-20.1 0,0 -43.07,-71.78 -54.55,-68.91 -11.49,2.88 -8.61,11.49 -8.61,11.49 0,0 -2.88,129.21 5.74,143.56 8.61,14.36 149.3,54.55 149.3,54.55 l 17.23,20.1 65.08,-76.56"
         style="fill:#f5775b;fill-opacity:1;fill-rule:nonzero;stroke:none"
         id="path260" />
      <path
         d="m 6276.32,2775.55 c 3.83,-11.48 34.46,-101.45 49.77,-147.39 15.31,-45.94 -329.24,-287.13 -382.83,-329.24 l -42.12,-34.45 -65.08,76.56 302.44,302.44 -44.02,99.54 181.84,32.54"
         style="fill:#f5775b;fill-opacity:1;fill-rule:nonzero;stroke:none"
         id="path262" />
      <path
         d="m 5677.4,2110.2 18.19,80.39 -10.01,2.27 -18.18,-80.39"
         style="fill:#e74d4d;fill-opacity:1;fill-rule:nonzero;stroke:none"
         id="path264" />
      <path
         d="m 5666.53,2181.93 21.06,45.94 -9.33,4.27 -21.05,-45.93"
         style="fill:#e74d4d;fill-opacity:1;fill-rule:nonzero;stroke:none"
         id="path266" />
      <path
         d="m 5664.4,2266.64 -7.92,-160.43 h 33.22 l 41.68,71.45 -8.86,5.17 -38.71,-66.37 h -16.55 l 7.39,149.67 -10.25,0.51"
         style="fill:#e74d4d;fill-opacity:1;fill-rule:nonzero;stroke:none"
         id="path268" />
      <path
         d="m 2520.7,428.77 c 0,-34.899 -336.81,-63.18 -752.28,-63.18 -415.46,0 -752.27,28.281 -752.27,63.18 0,34.878 336.81,63.16 752.27,63.16 415.47,0 752.28,-28.282 752.28,-63.16"
         style="fill:#c7dbf3;fill-opacity:1;fill-rule:nonzero;stroke:none"
         id="path270" />
      <path
         d="m 1465.57,631.98 c 0,0 15.96,34.2 75.24,25.079 59.28,-9.118 66.12,-20.52 72.96,-50.161 6.84,-29.636 27.36,-61.558 41.04,-68.398 13.68,-6.84 63.83,-41.031 104.87,-47.879 41.04,-6.832 45.6,-31.91 36.48,-43.32 -9.12,-11.403 -164.15,-20.52 -198.35,-15.961 0,0 -116.28,2.289 -143.63,11.398 -27.37,9.121 9.11,177.844 11.39,189.242"
         style="fill:#292431;fill-opacity:1;fill-rule:nonzero;stroke:none"
         id="path272" />
      <path
         d="m 1399.73,1433.4 c 0,0 -17.34,94.42 82.38,126.12 99.71,31.69 118.58,-14.4 148.77,-100.51 30.18,-86.12 -25.95,-821.791 -25.95,-821.791 0,0 -114.81,-19.61 -144.26,-2.219 0,0 -87.47,478.9 -81.39,610.33 6.09,131.42 20.45,188.07 20.45,188.07"
         style="fill:#394177;fill-opacity:1;fill-rule:nonzero;stroke:none"
         id="path274" />
      <path
         d="m 1448.47,663.891 c 0,0 129.96,11.41 171,18.25 l -2.28,-59.282 c 0,0 -102.6,-18.238 -166.44,-9.121 l -2.28,50.153"
         style="fill:#4d5191;fill-opacity:1;fill-rule:nonzero;stroke:none"
         id="path276" />
      <path
         d="m 1416.55,3276.7 c 0,0 -82.07,-4.56 -132.23,-191.52 -50.16,-186.95 -82.08,-414.94 -63.84,-474.22 18.24,-59.28 214.32,-218.87 287.27,-218.87 72.96,0 77.52,54.71 63.84,100.31 -13.68,45.6 -155.04,168.72 -155.04,168.72 0,0 114,364.79 109.44,460.54 -4.56,95.76 -59.27,155.04 -109.44,155.04"
         style="fill:#7d6cbd;fill-opacity:1;fill-rule:nonzero;stroke:none"
         id="path278" />
      <path
         d="m 2444.29,3332.47 -13.61,-1.38 30.51,60.4 c 0,0 77.55,4.89 89.99,-27.86 l -35.57,-78.89 -71.32,47.73"
         style="fill:#f5775b;fill-opacity:1;fill-rule:nonzero;stroke:none"
         id="path280" />
      <path
         d="m 2487.88,3504.11 c 0,0 -3.02,61.73 18.94,70.5 21.96,8.77 46.56,-8.31 46.56,-8.31 0,0 35.55,3.62 46.89,-11.55 11.34,-15.17 10.42,-38.12 10.42,-38.12 0,0 20.04,-4.49 25.25,-23.55 5.21,-19.06 -4.09,-55.92 -4.09,-55.92 0,0 -23.22,-28.49 -50.06,-21.43 -26.84,7.06 -93.91,88.38 -93.91,88.38"
         style="fill:#f35e4e;fill-opacity:1;fill-rule:nonzero;stroke:none"
         id="path282" />
      <path
         d="m 2447.25,3454.26 c 0,0 -8.23,80.79 0.48,91.47 8.7,10.69 97.71,133.82 97.71,133.82 0,0 18.47,-20.98 7.85,-44.91 -10.63,-23.94 -52.54,-96.56 -52.54,-96.56 l -0.21,-62.06 c 0,0 -27.43,-19.12 -53.29,-21.76"
         style="fill:#f35e4e;fill-opacity:1;fill-rule:nonzero;stroke:none"
         id="path284" />
      <path
         d="m 2453.84,3389.63 c 0,0 -21.27,129.75 -6.76,147.55 14.51,17.8 85.66,7.42 99.24,2.27 13.58,-5.14 51.17,-53.55 56.38,-72.61 5.21,-19.06 -30.22,-87.98 -51.52,-103.21 -21.31,-15.23 -85.01,1.13 -97.34,26"
         style="fill:#f5775b;fill-opacity:1;fill-rule:nonzero;stroke:none"
         id="path286" />
      <path
         d="m 2403.77,3304.05 27.35,50.17 c 0,0 63.84,11.4 95.76,-38.76 9.12,-18.24 4.56,-18.24 4.56,-18.24 l -20.52,-41.04 -107.15,47.87"
         style="fill:#e1e2eb;fill-opacity:1;fill-rule:nonzero;stroke:none"
         id="path288" />
      <path
         d="m 1754.25,3852.97 c 0,0 67.46,-17.26 105.67,-120.83 38.21,-103.58 12.74,-323.68 -12.74,-349.57 -25.47,-25.9 -102.86,-16.01 -210.17,19.41 -113.38,37.43 -151.69,155.3 -171.95,233.05 -38.8,148.89 90.67,302.1 289.19,217.94"
         style="fill:#f5775b;fill-opacity:1;fill-rule:nonzero;stroke:none"
         id="path290" />
      <path
         d="m 1512.31,3281.26 54.72,196.07 c 0,0 109.44,31.92 177.83,-41.04 l 22.8,-31.92 V 3276.7 c 0,0 -113.99,-22.8 -255.35,4.56"
         style="fill:#f5775b;fill-opacity:1;fill-rule:nonzero;stroke:none"
         id="path292" />
      <path
         d="m 1359.56,2225.65 c 0,0 -41.04,-239.39 0,-512.99 41.04,-273.59 123.11,-300.94 198.35,-300.94 75.24,0 95.76,218.87 109.44,314.62 13.68,95.77 68.39,424.08 -34.2,499.31 -102.6,75.24 -218.88,82.08 -273.59,0"
         style="fill:#394177;fill-opacity:1;fill-rule:nonzero;stroke:none"
         id="path294" />
      <path
         d="m 1646.83,1904.18 c 0,0 -82.08,218.87 61.56,314.63 143.63,95.76 253.07,82.08 287.27,-75.24 34.19,-157.31 41.04,-697.66 -6.84,-807.09 -47.88,-109.44 -218.88,61.55 -341.99,567.7"
         style="fill:#394177;fill-opacity:1;fill-rule:nonzero;stroke:none"
         id="path296" />
      <path
         d="m 1885.88,3843.61 c 0,0 32.36,-42.08 12.94,-90.63 -19.41,-48.55 -90.63,-67.97 -90.63,-67.97 0,0 22.66,-32.37 0,-77.68 l -16.18,-25.9 c 0,0 22.66,-51.78 16.18,-64.73 -6.47,-12.95 -29.13,-9.72 -29.13,-9.72 0,0 -25.89,71.22 -35.6,64.74 -9.71,-6.47 -35.6,-38.84 -35.6,-67.97 0,-29.13 9.7,-51.79 3.23,-71.21 -6.47,-19.42 -106.81,-19.42 -148.89,-12.95 -42.08,6.48 -106.81,135.95 -122.99,194.21 0,0 -22.66,80.92 9.71,148.89 0,0 -6.48,58.26 48.55,116.53 55.02,58.26 229.81,38.83 258.94,16.18 0,0 -3.24,32.37 29.13,25.89 32.37,-6.47 80.92,-35.6 100.34,-77.68"
         style="fill:#c72a41;fill-opacity:1;fill-rule:nonzero;stroke:none"
         id="path298" />
      <path
         d="m 1788.78,3549.06 c 0,0 -9.72,42.08 -45.32,22.66 -35.6,-19.42 6.47,-119.76 35.6,-113.29 29.13,6.48 16.19,74.45 9.72,90.63"
         style="fill:#f35e4e;fill-opacity:1;fill-rule:nonzero;stroke:none"
         id="path300" />
      <path
         d="m 1483.36,3282.3 c 0,0 15.27,53.67 28.95,58.23 13.68,4.56 182.4,22.81 273.59,-31.91 41.04,-31.92 36.48,-54.72 36.48,-54.72 0,0 -272.22,52.23 -339.02,28.4"
         style="fill:#e1e2eb;fill-opacity:1;fill-rule:nonzero;stroke:none"
         id="path302" />
      <path
         d="m 1448.47,3294.94 c 0,0 282.71,18.24 483.35,-68.4 91.19,-45.6 299.81,-251.93 299.81,-251.93 l 164.15,341.99 c 0,0 92.34,33.06 128.82,-53.58 0,0 -103.73,-403.55 -190.37,-531.23 -54.72,-45.6 -315.77,102.6 -315.77,102.6 0,0 41.03,-528.94 27.36,-766.05 -18.25,-45.61 -373.91,-68.4 -437.75,-63.84 -63.84,4.56 -287.27,77.52 -291.83,91.19 -4.56,13.68 31.92,560.86 22.8,624.7 -9.12,63.84 -36.48,378.47 -27.36,424.07 9.12,45.6 50.16,132.24 136.79,150.48"
         style="fill:#7d6cbd;fill-opacity:1;fill-rule:nonzero;stroke:none"
         id="path304" />
      <path
         d="m 1749.43,618.301 c 0,0 15.95,34.199 75.23,25.078 59.28,-9.129 66.12,-20.52 72.96,-50.16 6.84,-29.637 27.36,-61.559 41.04,-68.399 13.68,-6.84 63.84,-41.031 104.88,-47.879 41.04,-6.839 45.59,-31.91 36.48,-43.312 -9.13,-11.41 -164.16,-20.527 -198.36,-15.969 0,0 -116.28,2.289 -143.64,11.41 -27.35,9.11 9.12,177.828 11.41,189.231"
         style="fill:#382d3e;fill-opacity:1;fill-rule:nonzero;stroke:none"
         id="path306" />
      <path
         d="m 1776.78,1418.55 c 0,0 -6.84,95.76 95.76,116.28 102.6,20.52 116.28,-27.36 136.8,-116.28 20.51,-88.91 -116.28,-813.929 -116.28,-813.929 0,0 -116.28,-6.84 -143.63,13.68 0,0 -34.2,485.619 -13.69,615.579 20.53,129.95 41.04,184.67 41.04,184.67"
         style="fill:#394177;fill-opacity:1;fill-rule:nonzero;stroke:none"
         id="path308" />
      <path
         d="m 1740.3,606.898 c 0,0 88.92,-25.078 164.16,-11.398 l 6.84,52.441 -173.28,11.399 2.28,-52.442"
         style="fill:#4d5191;fill-opacity:1;fill-rule:nonzero;stroke:none"
         id="path310" />
      <path
         d="m 1614.57,1953.95 c 0.05,-0.12 95.73,-307.79 167.84,-458.95 l 9.26,4.42 c -35.72,74.85 -77.61,189.36 -110.49,285.02 -16.45,47.84 -30.65,90.99 -40.75,122.17 -5.04,15.59 -9.06,28.19 -11.82,36.9 -2.75,8.7 -4.24,13.48 -4.24,13.49 l -9.8,-3.05"
         style="fill:#282c55;fill-opacity:1;fill-rule:nonzero;stroke:none"
         id="path312" />
      <path
         d="m 1817,1431.23 0.22,0.12 c 2.52,1.45 26.6,14.41 57.47,14.37 16.49,-0.01 34.87,-3.61 53.39,-14.49 l 5.2,8.84 c -20.24,11.92 -40.62,15.92 -58.59,15.91 -35.97,-0.04 -62.46,-15.69 -62.89,-15.91 l 5.2,-8.84"
         style="fill:#282c55;fill-opacity:1;fill-rule:nonzero;stroke:none"
         id="path314" />
      <path
         d="m 1806.69,1393.58 0.01,0.01 c 0.74,0.39 11,5.75 29.65,5.75 21.13,-0.02 53.2,-6.83 94.78,-36.27 l 5.93,8.37 c -42.97,30.46 -77.32,38.17 -100.71,38.16 -22.02,0 -34.17,-6.77 -34.75,-7.11 l 5.09,-8.91"
         style="fill:#282c55;fill-opacity:1;fill-rule:nonzero;stroke:none"
         id="path316" />
      <path
         d="m 1448.51,1472.9 -1.04,1.14 1.02,-1.16 0.02,0.02 -1.04,1.14 1.02,-1.16 c 0.3,0.23 14.71,12.9 46.29,12.92 17.95,0 41.53,-4.12 71.32,-17.23 l 4.14,9.39 c -30.89,13.6 -55.93,18.1 -75.46,18.1 -35.55,0.02 -52.54,-14.95 -53.18,-15.57 l 6.91,-7.59"
         style="fill:#282c55;fill-opacity:1;fill-rule:nonzero;stroke:none"
         id="path318" />
      <path
         d="m 1474.71,1437.91 0.12,0.06 c 1.63,0.79 18.16,8.35 40.33,8.33 17.77,-0.03 39.05,-4.71 60.06,-21.49 l 6.41,8.01 c -22.96,18.4 -46.9,23.76 -66.47,23.74 -26.12,-0.03 -44.61,-9.28 -45.04,-9.47 l 4.59,-9.18"
         style="fill:#282c55;fill-opacity:1;fill-rule:nonzero;stroke:none"
         id="path320" />
      <path
         d="m 1593.82,1387.93 -20.52,-697.668 10.26,-0.301 20.52,697.669"
         style="fill:#282c55;fill-opacity:1;fill-rule:nonzero;stroke:none"
         id="path322" />
      <path
         d="m 1879.06,1968.15 c 0.4,-0.16 24.75,-14.69 53.26,-14.78 11.4,0 23.57,2.42 34.78,9.32 11.22,6.89 21.28,18.2 28.69,35.19 l -9.39,4.11 c -6.78,-15.43 -15.4,-24.84 -24.68,-30.56 -9.28,-5.71 -19.41,-7.79 -29.4,-7.8 -12.47,-0.01 -24.6,3.33 -33.54,6.71 -4.48,1.69 -8.15,3.38 -10.68,4.63 -1.27,0.63 -2.25,1.15 -2.9,1.51 l -0.73,0.4 -0.21,0.12 -5.2,-8.85"
         style="fill:#282c55;fill-opacity:1;fill-rule:nonzero;stroke:none"
         id="path324" />
      <path
         d="m 1954.09,1962.8 c 0,-0.01 0.45,-3.47 1.23,-9.92 5.51,-45.12 27.56,-235.88 27.55,-393.76 0,-22.54 -0.45,-44.41 -1.45,-65.07 l 10.24,-0.5 c 1.02,20.86 1.47,42.89 1.47,65.57 -0.01,181.44 -28.86,404.88 -28.87,404.99 l -10.17,-1.31"
         style="fill:#282c55;fill-opacity:1;fill-rule:nonzero;stroke:none"
         id="path326" />
      <path
         d="m 1306.57,3025.43 36.48,-392.15 10.21,0.95 -36.48,392.15"
         style="fill:#4b4384;fill-opacity:1;fill-rule:nonzero;stroke:none"
         id="path328" />
      <path
         d="m 1934.52,2884.95 c 0.1,-0.07 56.4,-40.7 129.81,-81.4 36.71,-20.34 77.69,-40.71 118.15,-56.04 40.47,-15.31 80.39,-25.65 115.29,-25.67 13.47,0.01 26.2,1.56 37.92,5.04 l -2.93,9.83 c -10.55,-3.14 -22.31,-4.61 -34.99,-4.61 -32.87,-0.02 -71.87,9.92 -111.65,25.01 -59.7,22.6 -121.2,56.67 -167.68,85.08 -23.24,14.2 -42.74,26.98 -56.42,36.21 -6.84,4.61 -12.22,8.34 -15.89,10.9 -3.67,2.57 -5.6,3.96 -5.61,3.97 l -6,-8.32"
         style="fill:#4b4384;fill-opacity:1;fill-rule:nonzero;stroke:none"
         id="path330" />
      <path
         d="m 2256.48,2932.52 0.07,-0.05 c 1.15,-0.66 13.47,-8.08 25.36,-23.04 11.89,-15 23.39,-37.35 23.4,-68.63 0,-2.01 -0.05,-4.07 -0.14,-6.17 l 10.24,-0.48 c 0.11,2.25 0.16,4.47 0.16,6.65 0.02,34.97 -13.45,60.27 -26.89,76.57 -13.45,16.33 -26.81,23.88 -27.17,24.09 l -5.03,-8.94"
         style="fill:#4b4384;fill-opacity:1;fill-rule:nonzero;stroke:none"
         id="path332" />
      <path
         d="m 2246.76,2959.43 0.23,0.06 c 1.38,0.37 8.36,2.08 18.07,2.07 9.45,0 21.42,-1.6 33.5,-7.45 12.07,-5.87 24.36,-15.92 34.67,-33.4 l 8.84,5.2 c -11.23,19.12 -25.22,30.76 -39.04,37.44 -13.83,6.69 -27.38,8.47 -37.97,8.47 -12.46,0 -20.87,-2.46 -21.2,-2.55 l 2.9,-9.84"
         style="fill:#4b4384;fill-opacity:1;fill-rule:nonzero;stroke:none"
         id="path334" />
      <path
         d="m 1924.88,3204.86 c -0.35,-0.19 -21.02,-11.03 -41.83,-34.11 -20.79,-23.04 -41.73,-58.61 -41.72,-107.49 0,-32.57 9.28,-70.86 33.55,-115.06 l 9,4.93 c -23.61,43.01 -32.28,79.53 -32.29,110.13 0.02,45.85 19.48,78.82 39.08,100.62 9.8,10.88 19.62,18.91 26.96,24.18 3.67,2.64 6.71,4.59 8.82,5.87 1.05,0.64 1.87,1.11 2.42,1.42 l 0.6,0.34 0.17,0.09 -4.76,9.08"
         style="fill:#4b4384;fill-opacity:1;fill-rule:nonzero;stroke:none"
         id="path336" />
      <path
         d="m 1718.99,3425.88 c 0.18,-0.43 5.55,-14.16 19.69,-28.03 14.1,-13.87 37.28,-27.73 71.84,-27.69 5.76,0 11.82,0.38 18.21,1.19 l -1.3,10.18 c -5.97,-0.76 -11.6,-1.11 -16.91,-1.11 -31.78,0.04 -51.97,12.4 -64.66,24.76 -6.32,6.19 -10.69,12.39 -13.46,17 -1.38,2.31 -2.37,4.22 -2.99,5.52 l -0.68,1.48 -0.15,0.35 -0.02,0.07 -9.57,-3.72"
         style="fill:#e74d4d;fill-opacity:1;fill-rule:nonzero;stroke:none"
         id="path338" />
      <path
         d="m 2501.23,3550.45 26.79,23.94 -3.42,3.83 0.09,-5.13 -0.08,4.41 v -4.41 h 0.08 l -0.08,4.41 v -4.41 c 0.01,0 4.37,-0.02 9.64,-1.37 5.31,-1.33 11.32,-4 15.18,-8.7 l 7.9,6.55 c -5.97,7.14 -14.06,10.43 -20.54,12.1 -6.52,1.65 -11.62,1.67 -12.18,1.68 h -0.1 l -1.91,-0.04 -28.2,-25.21 6.83,-7.65"
         style="fill:#e74d4d;fill-opacity:1;fill-rule:nonzero;stroke:none"
         id="path340" />
      <path
         d="m 2534.86,3550.29 h -4.75 l 3.71,-3.02 c 0.15,0.34 0.88,0.69 1.04,3.02 h -4.75 l 3.71,-3.02 -1.97,1.6 1.68,-1.91 0.29,0.31 -1.97,1.6 1.68,-1.91 c 0.06,0.06 0.98,0.74 2.2,1.51 4.35,2.79 13.11,7.74 20.65,11.9 7.56,4.18 13.96,7.62 13.97,7.63 l -2.43,4.52 -1.22,-4.98 c 0,-0.01 0.44,-0.11 1.34,-0.37 3.15,-0.87 11.35,-3.41 19.01,-7.5 7.75,-4.04 14.43,-9.78 15.83,-15.33 1.88,-6.69 2.43,-12.04 2.43,-16.02 0,-3.1 -0.33,-5.37 -0.63,-6.8 l -0.39,-1.52 -0.09,-0.29 -0.01,-0.02 2.82,-1.09 -2.8,1.15 -0.02,-0.06 2.82,-1.09 -2.8,1.15 9.49,-3.9 c 0.22,0.53 1.87,4.81 1.87,12.47 0,4.92 -0.68,11.23 -2.81,18.8 -1.69,5.94 -5.57,10.63 -10.03,14.41 -6.72,5.65 -15.01,9.51 -21.69,12.1 -6.68,2.58 -11.75,3.83 -11.89,3.87 l -1.92,0.47 -1.74,-0.93 c -0.01,-0.01 -9.57,-5.15 -19.17,-10.52 -4.8,-2.69 -9.6,-5.43 -13.27,-7.65 -1.85,-1.11 -3.39,-2.08 -4.6,-2.92 l -1.66,-1.26 -0.93,-0.95 c -0.29,-0.52 -1.09,-1.01 -1.26,-3.45 h 10.26"
         style="fill:#e74d4d;fill-opacity:1;fill-rule:nonzero;stroke:none"
         id="path342" />
      <path
         d="m 2576.38,3512.36 -1.34,4.01 0.48,-4.21 0.86,0.2 -1.34,4.01 0.48,-4.21 -0.09,0.78 0.05,-0.78 h 0.04 l -0.09,0.78 0.05,-0.78 0.8,0.01 c 3.82,0.01 15.67,-0.58 26.3,-1.17 10.68,-0.58 20.3,-1.17 20.32,-1.17 l 0.31,5.12 -2.85,-4.27 0.64,0.95 -0.65,-0.94 0.01,-0.01 0.64,0.95 -0.65,-0.94 c 0.17,-0.11 3.87,-2.71 7.39,-7.5 3.53,-4.82 6.87,-11.67 6.88,-20.78 l -0.01,-0.96 v 0 c -0.27,-10.6 -2.18,-21.36 -4.03,-29.4 -0.93,-4.02 -1.84,-7.37 -2.51,-9.69 -0.33,-1.17 -0.61,-2.08 -0.8,-2.69 l -0.29,-0.89 4.87,-1.62 -4.2,2.94 -0.11,-0.15 c -0.73,-0.98 -4.88,-6.32 -11.75,-11.27 -6.89,-4.96 -16.34,-9.5 -28.05,-9.5 l -0.91,0.01 -0.2,-10.25 1.11,-0.02 c 15.4,0.01 27.51,6.39 35.63,12.61 8.14,6.25 12.47,12.4 12.67,12.68 l 0.44,0.61 0.23,0.71 c 0.07,0.26 7.53,22.44 8.16,45.66 v 0 l 0.01,1.22 c 0.01,12.11 -4.69,21.38 -9.31,27.44 -4.64,6.09 -9.2,9.15 -9.52,9.37 l -1.15,0.76 -1.38,0.09 c 0,0 -9.66,0.59 -20.38,1.18 -10.75,0.59 -22.37,1.18 -26.86,1.18 l -1.27,-0.02 -0.64,-0.05 -1.24,-0.27 3.25,-9.73"
         style="fill:#e74d4d;fill-opacity:1;fill-rule:nonzero;stroke:none"
         id="path344" />
      <path
         d="m 2597.2,3466.63 1.57,0.99 -1.62,-0.9 0.05,-0.09 1.57,0.99 -1.62,-0.9 c 0.07,-0.14 1.36,-2.51 1.36,-7.04 0,-3.37 -0.71,-7.97 -3.35,-13.88 -3.99,-8.97 -7.95,-23.57 -14.97,-38.57 -6.99,-14.97 -16.83,-29.93 -31.74,-39.25 l 5.45,-8.69 c 17.38,10.92 28.16,27.73 35.58,43.6 7.39,15.84 11.62,31.15 15.04,38.71 3.19,7.12 4.26,13.24 4.25,18.08 0,7.48 -2.49,11.79 -2.87,12.39 l -8.7,-5.44"
         style="fill:#e74d4d;fill-opacity:1;fill-rule:nonzero;stroke:none"
         id="path346" />
      <path
         d="m 1634.43,3772.46 c -20.68,10.07 -42.84,13.55 -63.69,13.55 -50.48,-0.06 -93.86,-20.15 -94.34,-20.32 l 2.85,-6.22 6.67,-1.53 0.01,0.02 c 0.18,0.79 2.9,11.27 10.92,23.05 8.04,11.81 21.13,24.87 42.63,31.8 l -4.18,13.02 c -25.69,-8.23 -41.51,-24.47 -50.65,-38.45 -9.18,-14.02 -11.93,-25.85 -12.06,-26.37 l -3.13,-13.57 12.65,5.82 0.41,0.18 c 4.4,2 44.3,18.94 88.22,18.89 19.35,0 39.4,-3.25 57.7,-12.17 l 5.99,12.3"
         style="fill:#9e2b40;fill-opacity:1;fill-rule:nonzero;stroke:none"
         id="path348" />
      <path
         d="m 1483.36,3725.31 -0.27,2.68 v -2.7 l 0.27,0.02 -0.27,2.68 v -2.7 c 0.19,-0.02 3.48,0.01 9.31,-3.58 5.81,-3.59 14.18,-10.91 23.87,-25.81 l 11.47,7.45 c -10.52,16.19 -20.24,25.11 -28.15,30 -7.89,4.9 -13.95,5.63 -16.5,5.62 l -1.11,-0.05 1.38,-13.61"
         style="fill:#9e2b40;fill-opacity:1;fill-rule:nonzero;stroke:none"
         id="path350" />
      <path
         d="m 1775.69,3878.68 0.14,-0.02 c 1.92,-0.32 22.15,-4.27 41.56,-17.59 9.72,-6.66 19.22,-15.59 26.44,-27.54 7.21,-11.97 12.22,-26.98 12.75,-46.32 l 13.68,0.37 c -0.59,22.23 -6.67,40.22 -15.54,54.36 -13.32,21.24 -32.55,33.73 -48.28,40.94 -15.75,7.21 -28.15,9.24 -28.56,9.31 l -2.19,-13.51"
         style="fill:#9e2b40;fill-opacity:1;fill-rule:nonzero;stroke:none"
         id="path352" />
    </g>
  </g>
</svg>
